<?xml version="1.0" standalone="no"?>
<!DOCTYPE svg PUBLIC "-//W3C//DTD SVG 1.1//EN" "http://www.w3.org/Graphics/SVG/1.1/DTD/svg11.dtd" >
<svg xmlns="http://www.w3.org/2000/svg">
<metadata>
<json>
{
	"fontFamily": "coopericons",
	"majorVersion": 1,
	"minorVersion": 0,
	"fontURL": "http://se7ensky.com",
	"copyright": "SE7ENSKY frontend studio",
	"version": "Version 1.0",
	"fontId": "coopericons",
	"psName": "coopericons",
	"subFamily": "Regular",
	"fullName": "coopericons",
	"description": "Font generated by IcoMoon."
}
</json>
</metadata>
<defs>
<font id="coopericons" horiz-adv-x="512">
<font-face units-per-em="512" ascent="409.6" descent="-102.4" />
<missing-glyph horiz-adv-x="512" />
<glyph unicode="&#x20;" d="" horiz-adv-x="5.12" />
<glyph unicode="&#x61;" d="M256 217.814c-35.413 0-64.214-28.8-64.214-64.214 0-35.2 28.8-64 64.214-64s64.214 28.8 64.214 64c0 35.413-28.8 64.214-64.214 64.214zM5.973 137.814c0 0 255.573-233.6 255.573-233.6 8.534-8.32 21.974-8.32 30.507 0 8.32 8.534 8.32 21.974 0 30.293 0 0-240.214 219.52-240.214 219.52s240.214 219.306 240.214 219.306c8.32 8.32 8.32 21.974 0 30.293-8.534 8.32-21.974 8.32-30.507 0 0 0-255.573-233.387-255.573-233.387-4.48-4.48-6.4-10.453-5.973-16.214-0.426-5.974 1.494-11.947 5.973-16.214zM404.693 131.2c0 0 340.906 0 340.906 0 12.374 0 22.614 10.026 22.614 22.613 0 12.374-10.24 22.4-22.614 22.4 0 0-340.906 0-340.906 0-12.373 0-22.4-10.026-22.4-22.4 0-12.587 10.026-22.613 22.4-22.613z" horiz-adv-x="768" />
<glyph unicode="&#x62;" d="M512 217.814c35.413 0 64.213-28.8 64.213-64.214 0-35.2-28.8-64-64.214-64s-64.214 28.8-64.214 64c0 35.413 28.8 64.214 64.214 64.214zM762.027 137.814c0 0-255.573-233.6-255.573-233.6-8.534-8.32-21.974-8.32-30.507 0-8.32 8.534-8.32 21.974 0 30.293 0 0 240.214 219.52 240.214 219.52s-240.214 219.306-240.214 219.306c-8.32 8.32-8.32 21.974 0 30.293 8.534 8.32 21.974 8.32 30.507 0 0 0 255.573-233.387 255.573-233.387 4.48-4.48 6.4-10.453 5.973-16.214 0.427-5.974-1.494-11.947-5.973-16.214zM363.307 131.2c0 0-340.906 0-340.906 0-12.373 0-22.613 10.026-22.613 22.613 0 12.374 10.24 22.4 22.613 22.4 0 0 340.906 0 340.906 0 12.373 0 22.4-10.026 22.4-22.4 0-12.587-10.026-22.613-22.4-22.613z" horiz-adv-x="768" />
<glyph unicode="&#x63;" d="M383.025 47.787c0 0-270.141-148.724-270.141-148.724-0.244-0.122-0.487 0-0.609-0.122-0.487-0.244-0.853-0.488-1.341-0.731-1.341-0.365-2.56-0.61-3.901-0.61-2.073 0-4.023 0.61-5.73 1.585-0.244 0.122-0.365 0-0.487 0.122-1.219 0.731-2.195 1.585-3.047 2.682 0 0-0.122 0.122-0.244 0.122 0 0-41.447 52.419-41.447 52.419s-44.983 4.389-44.983 4.389c-6.583 0.731-11.459 6.461-10.972 13.166 0 0 26.453 333.897 26.453 333.897-0.244 1.097-0.366 2.316-0.244 3.535 0.488 4.388 3.291 8.289 7.436 9.996 0 0 212.114 88.746 212.114 88.746 3.413 1.341 7.192 1.219 10.362-0.609 0 0 80.823-43.276 80.823-43.276s0 0 0 0 0.122 0 0.122 0c0-0.122 0.122-0.122 0.122-0.244 1.463-0.731 2.56-1.828 3.535-3.047 0.122-0.365 0.365-0.488 0.488-0.853 0.975-1.219 1.463-2.804 1.829-4.389 0-0.122 0.122-0.122 0.122-0.365 0 0 45.836-295.132 45.836-295.132 0.731-5.12-1.707-10.118-6.095-12.556zM25.235-17.92c0 0 38.278-3.901 38.278-3.901 3.291-0.244 6.217-1.95 8.29-4.51 0 0 23.65-29.745 23.65-29.745s1.829 122.514 1.829 122.514c0 0 2.804 184.929 2.804 184.929s-50.834 34.011-50.834 34.011c0 0-24.015-303.299-24.015-303.299zM249.905 383.513c0 0-186.149-77.897-186.149-77.897s49.859-34.011 49.859-34.011c0 0 189.928 83.139 189.928 83.139s-53.638 28.769-53.638 28.769zM321.829 336.214c0 0-3.535-1.585-3.535-1.585s-193.951-84.846-193.951-84.846c0 0-4.876-319.269-4.876-319.269s244.419 134.461 244.419 134.461c0 0-42.057 271.238-42.057 271.238zM182.004 238.934c6.461 1.707 13.044-2.316 14.629-8.899 5.73-23.405 20.114-59.612 34.133-66.925 2.438-1.341 4.511-1.463 6.948-0.488 27.063 10.606 18.651 71.68 13.654 92.16-1.585 6.583 2.316 13.166 8.899 14.75 6.461 1.707 13.044-2.316 14.628-8.777 2.56-10.24 23.162-100.572-28.404-120.808-3.901-1.585-7.802-2.316-11.825-2.316-5.12 0-10.118 1.341-14.994 3.779-29.379 15.36-44.861 75.947-46.567 82.774-1.585 6.583 2.316 13.166 8.899 14.75z" horiz-adv-x="390" />
<glyph unicode="&#x64;" d="M482.24 334.72c0 0-181.12-181.12-181.12-181.12s181.12-181.12 181.12-181.12c0 0-45.12-45.12-45.12-45.12s-181.12 181.12-181.12 181.12c0 0-181.12-181.12-181.12-181.12s-45.12 45.12-45.12 45.12c0 0 181.12 181.12 181.12 181.12s-181.12 181.12-181.12 181.12c0 0 45.12 45.12 45.12 45.12s181.12-181.12 181.12-181.12c0 0 181.12 181.12 181.12 181.12s45.12-45.12 45.12-45.12z" />
<glyph unicode="&#x65;" d="M0-102.4c0 0 0 73.143 0 73.143s658.285 0 658.285 0c0 0 0-73.143 0-73.143s-658.285 0-658.285 0zM0 190.172c0 0 658.285 0 658.285 0s0-73.143 0-73.143c0 0-658.285 0-658.285 0s0 73.143 0 73.143zM0 409.6c0 0 658.285 0 658.285 0s0-73.143 0-73.143c0 0-658.285 0-658.285 0s0 73.143 0 73.143z" horiz-adv-x="659" />
<glyph unicode="&#x66;" d="M2772.62-27.44c0 0-88.041 0-88.041 0s-78.43 143.84-78.43 143.84c0 0 80.29 119.66 80.29 119.66s79.98 0 79.98 0c0 0-79.98-115.63-79.98-115.63s86.18-147.87 86.18-147.87zM2525.24 340.53c0 0 78.43 8.37 78.43 8.37s0-376.34 0-376.34c0 0-78.43 0-78.43 0s0 367.97 0 367.97zM2418.29-18.45c-19.22-11.78-42.16-17.36-68.51-17.36-39.99 0-71.61 12.4-94.55 36.89s-34.41 59.21-34.41 103.54c0 27.9 4.96 52.39 15.5 73.47s25.42 37.2 44.64 48.98c19.22 11.47 42.16 17.36 68.82 17.36 40.3 0 71.92-12.4 94.55-36.89 22.94-24.8 34.41-59.21 34.41-103.54 0-28.21-5.27-52.7-15.81-73.78-10.23-20.77-25.11-37.2-44.64-48.67zM2385.74 166.93c-7.75 13.33-19.84 19.84-35.961 19.84s-27.9-6.51-35.961-20.15c-7.75-13.33-11.78-34.1-11.78-62 0-28.83 4.030-49.91 11.78-63.24 7.75-13.020 19.53-19.84 35.961-19.84 15.81 0 27.59 6.82 35.649 20.15 7.75 13.33 11.78 34.1 11.78 62.31 0 28.83-3.72 49.91-11.47 62.93zM2128.75-18.45c-19.53-11.78-42.16-17.36-68.82-17.36-39.99 0-71.3 12.4-94.55 36.89-22.94 24.49-34.41 59.21-34.41 103.54 0 27.9 5.27 52.39 15.81 73.47 10.23 21.081 25.11 37.2 44.64 48.98 19.22 11.47 42.16 17.36 68.51 17.36 40.3 0 71.92-12.4 94.86-36.89 22.63-24.8 34.1-59.21 34.1-103.54 0-28.21-5.27-52.7-15.5-73.78-10.54-20.77-25.42-37.2-44.64-48.67zM2095.89 166.93c-7.75 13.33-19.84 19.84-35.961 19.84-15.81 0-27.59-6.51-35.65-20.15-8.060-13.33-11.78-34.1-11.78-62 0-28.83 3.719-49.91 11.47-63.24 7.75-13.020 19.84-19.84 35.96-19.84 15.81 0 27.9 6.82 35.649 20.15 8.060 13.33 12.090 34.1 12.090 62.31 0 28.83-4.030 49.91-11.78 62.93zM1847.89-18.14c-15.5-11.78-34.1-17.67-55.801-17.67-14.57 0-27.59 2.79-39.37 8.68-11.78 5.58-21.7 13.95-29.45 25.11 0 0-4.030-25.42-4.030-25.42s-69.44 0-69.44 0c0 0 0 367.97 0 367.97s78.43 8.37 78.43 8.37c0 0 0-139.81 0-139.81 7.44 10.54 17.67 19.22 30.070 25.73 12.71 6.2 25.73 9.61 39.37 9.61 31.93 0 56.42-12.4 73.47-36.89s25.73-58.9 25.73-103.54c0-26.97-4.34-51.15-12.71-72.54-8.37-21.079-20.46-37.51-36.27-49.6zM1804.49 168.79c-7.13 12.090-17.67 17.98-31.31 17.98-17.67 0-32.86-10.23-44.95-30.69 0 0 0-109.12 0-109.12 10.54-17.050 24.49-25.73 41.54-25.73 30.38 0 45.57 27.589 45.57 82.77 0 31-3.41 52.7-10.85 64.79zM1440.55 81.060c2.17-22.010 8.37-37.51 18.29-46.5s23.56-13.33 41.23-13.33c10.54 0 20.77 1.86 30.69 5.58s20.77 9.61 32.24 17.67c0 0 32.24-43.709 32.24-43.709-30.69-24.49-65.1-36.58-102.61-36.58-42.78 0-75.33 12.4-98.27 37.51s-34.1 58.9-34.1 101.37c0 26.66 4.65 50.839 14.26 72.23 9.61 21.079 23.56 38.13 42.16 50.53s40.61 18.601 66.34 18.601c38.13 0 67.89-12.090 89.28-35.65 21.7-23.87 32.24-57.040 32.24-99.2 0-11.161-0.31-20.46-1.241-28.519 0 0-162.75 0-162.75 0zM1527.66 131.9c-0.62 40.3-14.88 60.45-42.47 60.45-13.64 0-24.18-4.96-31.31-14.57-7.13-9.92-11.78-26.35-13.95-49.6 0 0 87.73 0 87.73 0s0 3.721 0 3.721zM1261.99 26.19c9.3 0 17.36 1.55 24.8 4.34 7.13 3.1 15.19 8.060 24.18 14.88 0 0 35.65-49.91 35.65-49.91-26.040-21.079-55.49-31.31-88.66-31.31-26.66 0-49.91 5.58-69.44 17.050s-34.41 27.589-45.26 48.050c-10.54 20.77-15.81 44.95-15.81 72.85 0 27.591 5.27 52.39 15.81 73.78 10.85 21.39 25.73 38.13 45.26 50.22s42.16 18.29 67.89 18.29c18.29 0 34.72-2.79 49.29-8.060s28.21-13.33 40.919-24.18c0 0-34.1-47.12-34.1-47.12-15.81 12.71-32.55 19.22-49.6 19.22-17.67 0-30.69-6.51-39.679-19.22-8.99-13.020-13.33-33.79-13.33-62.62 0-27.589 4.34-47.43 13.33-58.9 8.99-11.78 21.7-17.36 38.75-17.36zM1041.89-24.030c-9.92 5.58-17.98 14.88-23.87 27.28-17.36-26.039-43.71-39.060-79.36-39.060-26.35 0-47.12 7.44-62.62 22.63s-23.25 35.030-23.25 59.52c0 28.83 10.54 50.839 31.62 66.030s51.769 22.94 91.76 22.94c0 0 26.97 0 26.97 0s0 11.47 0 11.47c0 15.5-3.41 26.040-9.92 31.93-6.82 5.58-18.29 8.679-34.72 8.679-8.679 0-19.22-1.24-31.31-3.72-12.4-2.48-24.8-5.89-37.82-10.23 0 0-17.67 51.46-17.67 51.46 16.43 6.51 33.481 11.161 50.841 14.57 17.36 3.1 33.481 4.96 48.361 4.96 37.51 0 65.1-7.75 82.77-23.25 17.36-15.81 26.35-39.060 26.35-70.060 0 0 0-102.3 0-102.3 0-9.92 1.239-17.050 4.030-21.7s7.44-8.060 13.64-10.54c0 0-16.43-50.841-16.43-50.841-16.12 1.24-29.14 4.65-39.37 10.23zM1003.14 92.22c0 0-19.53 0-19.53 0-17.67 0-31-3.41-39.99-9.61-8.681-6.2-13.020-16.12-13.020-29.14 0-10.54 2.79-18.91 8.060-24.49 5.58-5.89 13.020-8.68 22.63-8.68 8.681 0 16.43 2.17 23.559 6.2 7.13 4.34 13.33 10.54 18.29 18.601 0 0 0 47.12 0 47.12zM729.1 258.38c0 0 0-91.45 0-91.45s100.439 0 100.439 0c0 0 0-57.97 0-57.97s-100.439 0-100.439 0c0 0 0-136.4 0-136.4s-81.22 0-81.22 0c0 0 0 343.79 0 343.79s204.91 0 204.91 0c0 0-8.37-57.97-8.37-57.97s-115.319 0-115.319 0zM341.91 309.84c0 0-38.75 0-38.75 0-35.34 0-47.739-20.15-47.739-38.75 0 0 0-28.52 0-28.52s81.84 0 81.84 0c6.82 0 12.090-4.96 12.090-11.47 0 0 0-66.030 0-66.030 0-6.51-5.27-11.47-12.090-11.47 0 0-81.84 0-81.84 0s0-236.53 0-236.53c0-6.51-5.58-11.47-12.090-11.47 0 0-93.62 0-93.62 0-6.51 0-12.090 4.96-12.090 11.47 0 0 0 236.84 0 236.84s-81.53 0-81.53 0c-6.82 0-12.090 4.96-12.090 11.47 0 0 0 65.719 0 65.719 0 6.51 5.27 11.47 12.090 11.47 0 0 74.71 0 74.71 0 0 48.98 7.44 70.060 7.75 70.99 22.32 83.7 104.16 88.040 120.281 88.040 2.79 0 4.34 0 4.34 0s78.74 0 78.74 0c6.82 0 12.090-5.27 12.090-11.47 0 0 0-68.82 0-68.82 0-6.2-5.27-11.47-12.090-11.47z" horiz-adv-x="2816" />
<glyph unicode="&#x67;" d="M512-36.741c0 0 438.34 438.34 438.34 438.34s-438.34-119.66-438.34-119.66c0 0-438.34 119.66-438.34 119.66s438.34-438.34 438.34-438.34z" horiz-adv-x="1024" />
<glyph unicode="&#x68;" d="M512 343.941c0 0 438.34-438.34 438.34-438.34s-438.34 119.66-438.34 119.66c0 0-438.34-119.66-438.34-119.66s438.34 438.34 438.34 438.34z" horiz-adv-x="1024" />
<glyph unicode="&#xe600;" d="M403.837-75.577l-37.462 49.661c-5.733 0.41-11.567 0.769-17.508 1.065l43.993-62.753c1.64-2.352 4.841-2.913 7.178-1.266l13.731 9.653c2.33 1.647 2.906 4.87 1.266 7.222l-34.218 44.878c-1.942 0.187-3.921 0.353-5.891 0.525l34.556-45.806c0.611-0.87 0.396-2.093-0.474-2.704-0.87-0.604-4.567-1.353-5.172-0.474zM316.807-89.984c0 2.424-1.705 4.043-3.136 4.043-1.273 0-2.065-1.086-2.065-2.273 0-1.46 0.877-2.985 3.093-2.985 1.144 0 2.108 0.281 2.108 1.216v0zM313.383-95.207c-4.259 0-6.683 3.474-6.683 6.963 0 3.438 2.539 6.848 6.978 6.848 4.108 0 8.279-3.1 8.279-9.711 0-5.524-3.409-11.293-9.74-11.293-1.51 0-3.151 0.23-4.51 0.885l1.338 4.265c0.798-0.338 1.798-0.597 2.798-0.597 2.409 0 3.769 1.482 4.402 3.352h-0.058c-0.461-0.381-1.834-0.712-2.805-0.712zM291.567-88.841c0.539 0.51 0.791 1.065 0.798 1.065h0.065c0 0-0.036-0.791-0.036-1.561v-8.466h-4.337v-4.265h13.602v4.265h-4.373v16.070h-4.316l-5.524-5.143 2.892-3.079 1.23 1.115zM252.738-97.71c1.856 0 2.921 0.913 2.921 2.022 0 1.575-1.604 2.245-3.805 2.245h-1.424l-1.050 2.409 2.69 3.208c0.971 1.158 1.769 1.899 1.769 1.899v0.065c0 0-0.655-0.151-1.942-0.151h-4.884v4.272h12.89v-3.108l-4.15-4.74c3.028-0.647 4.949-3.043 4.949-5.877 0-3.481-2.453-6.942-7.575-6.942-2.46 0-5.143 0.82-6.97 2.668l2.395 3.834c1.014-0.978 2.611-1.813 4.186-1.805v0zM231.166-88.841l-1.223-1.115-2.892 3.079 5.517 5.143h4.316v-16.070h4.374v-4.265h-13.609v4.265h4.345v8.466c0 0.769 0.029 1.561 0.029 1.561h-0.058c0.007 0-0.252-0.554-0.798-1.065zM171.275-27.109l-34.218-44.885c-1.633-2.338-1.065-5.56 1.266-7.207l13.732-9.653c2.338-1.647 5.546-1.086 7.178 1.266l44 62.745c-5.941-0.295-11.782-0.654-17.508-1.065l-37.454-49.661c-0.619-0.877-4.302-0.13-5.179 0.474-0.877 0.611-1.086 1.834-0.475 2.704l34.548 45.806c-1.978-0.18-3.942-0.346-5.891-0.525zM403.772-4.192c-4.748 5.567-31.125 24.601-42.943 26.514 0 0 47.086-3.187 58.581-5.502 0.784-3.265-7.315-18.731-15.638-21.011zM118.363 19.905v0c-17.781-2.237-17.242-9.214-17.234-15.781 0-28.931 7.301-32.002 31.405-29.693 18.4 1.769 46.072 6.97 88.288 6.97 17.119 0 35.404 1.317 55.049 1.33 19.644-0.014 37.93-1.33 55.042-1.33 42.216 0 69.895-5.2 88.288-6.97 24.104-2.309 31.405 0.762 31.405 29.693 0.007 6.567 0.546 13.544-17.235 15.781-76.52 9.617-143.971 9.51-157.501 9.142-13.531 0.367-80.988 0.474-157.508-9.142zM92.454 405.011c-0.446 0.676-1.064 1.33-1.064 1.33s-1.216-0.252-2.28-0.726c-36.124-16.214-59.2-40.368-59.789-44.417 21.759 25.83 53.704 40.224 60.789 43.202 3.496-4.503 19.767-26.24 66.846-98.798-5.107 8.093-57.754 89.029-64.501 99.409v0zM92.734 282.706l-55.962 69.198-0.381-2.215 56.344-66.983zM101.316 284.173c-5.186 5.913-57.639 75.075-57.639 75.075l-5.977-6.438 54.344-67.14c0 0 2.963-7.014 9.272-1.496v0zM51.352 363.248l-0.474-2.201 53.596-69.22-53.121 71.421zM115.32 292.769c0 0-55.581 74.183-58.078 76.974-2.899-1.921-4.179-3.496-4.934-4.488-0.763-1 52.653-69.478 55.567-74.974 2.302-2.698 7.445 2.489 7.445 2.489v0zM65.242 375.944l-0.496-2.194 52.934-69.737-52.438 71.931zM127.57 301.279c2.482 2.209 1.13 4.086-0.295 5.985-9.697 12.976-51.251 74.801-52.337 74.42-1.18-0.41-5.453-2.863-8.171-5.021 1.849-3.266 56.897-77.844 56.897-77.844s2.144 0.899 3.906 2.46v0zM81.879 386.69l-0.576-2.172 50.453-71.572-49.877 73.744zM138.101 312.328c1.863 2.525-1.805 6.74-12.71 23.881-13.66 21.471-35.218 55.358-35.218 55.358l-7.919-3.668c0 0 48.87-71.96 52.819-78.736 1.74 1.281 2.403 2.316 3.029 3.165v0zM138.978 279.354l12.38-17.458c-0.54-0.238-1.079-0.474-1.604-0.719l-12.228 16.904c-0.417-0.346-0.827-0.676-1.223-0.986l11.746-16.717c-4.647-2.223-8.006-4.244-10.315-5.841l-11.222 16.185c-10.15-4.798-29.945-9.365-30.715-8.272l-74.708 92.209c5.596 15.566 53.697 52.834 71.241 53.956l67.335-104.178c0.769-1.094-11.689-16.99-20.688-25.083zM384.696 234.455c1.345-4.697-2.453-6.258-3.259-6.208s-2.683 0.043-3.834 1.95c-1.41 2.338 1.108 7.452 1.755 9.344 0.223 1.791 1.863 1.748 2.144 0.935 0.446-0.446 1.856-1.41 3.194-6.020zM348.802 248.64c0.662-0.885-0.461-2.668-2.532-1.64-2.467 0.655-9.718 1.589-11.214 4.769-1.216 2.589 0.115 4.596 0.633 5.495 0.525 0.913 4.884 3.87 8.934-0.913 3.992-4.718 4.014-6.905 4.179-7.711zM322.842 231.038c1.086-1.604-0.238-2.733-1.029-2.294-0.676 0.036-2.453-0.202-6.747 2.547-4.352 2.791-2.46 6.747-1.784 7.28 0.662 0.54 2.129 1.892 4.38 1.179 2.748-0.863 4.359-6.74 5.179-8.711zM288.977 254.84v-0.194c0-0.123-0.007-0.238-0.014-0.359-0.079-0.935-0.403-1.712-0.568-2.194-0.18-0.482-1.187-1.604-2.755-2.137-0.389-0.137-0.813-0.238-1.266-0.274-0.123-0.007-0.23-0.014-0.346-0.014-0.123 0-0.238 0-0.367 0-0.245 0.014-0.482 0.050-0.748 0.094-1.007 0.194-2.129 0.705-3.316 1.669-4.639 3.899-5.301 5.359-5.704 5.833-0.115 0.043-0.216 0.108-0.288 0.18-0.065 0.072-0.108 0.158-0.137 0.244-0.043 0.18 0.007 0.381 0.18 0.576 0.158 0.202 0.446 0.41 0.841 0.582 0.087 0.043 0.202 0.087 0.31 0.123 0.050 0.021 0.115 0.036 0.173 0.050 0.065 0.014 0.123 0.029 0.187 0.043 0.252 0.065 0.533 0.101 0.841 0.101 2.856 0.626 10.085 1.166 12.048-1.697 0.389-0.568 0.64-1.122 0.784-1.654 0.065-0.266 0.101-0.532 0.115-0.784 0.007-0.058 0.014-0.123 0.014-0.187zM254.91 236.785c1.022 0.108 1.906-1.625 0.094-2.798-1.705-1.669-5.905-7.006-9.157-6.704-2.64 0.259-3.611 2.28-4.078 3.122s-0.748 5.733 4.999 6.697c5.668 0.95 7.416-0.065 8.143-0.316zM203.695 251.833c5.869-1.065 5.502-6.071 5.013-6.927s-1.511-2.913-4.215-3.136c-3.331-0.259-7.546 5.266-9.265 6.999-1.841 1.215-0.899 2.985 0.137 2.856 0.741 0.244 2.561 1.266 8.329 0.208zM169.19 230.635c1.359-4.697-2.446-6.251-3.251-6.201-0.813 0.050-2.69 0.043-3.841 1.942-1.403 2.345 1.115 7.452 1.755 9.344 0.23 1.798 1.87 1.755 2.158 0.942 0.446-0.446 1.856-1.41 3.179-6.028zM453.556 200.1v0c0 19.22-38.368 55.481-89.935 66.076-35.383 7.272-62.616 9.459-88.166 9.495-0.533 0-1.043-0.014-1.553-0.058v-0.029c-24.874-0.158-51.51-2.432-85.822-9.481-51.553-10.61-89.914-46.914-89.914-66.155-0.216-10.077 2.921-9.229 2.921-9.229 0.043-3.179 27.277 8.071 153.185 10.099 8.186 0.144 25.161 0.518 48.921 0.072 120.988-2.266 147.394-13.113 147.445-9.992 0.014-0.007 3.136-0.863 2.921 9.2zM448.794 297.258c-3.216-3.086-5.668-4.697-7.531-5.417-1.561-0.986-5.668 1.892-5.668 1.892s-0.942-2.036 0.568-4.474c0.87-1.417 3.395-4.172 5.251-3.805 9.502 1.856 44.281 48.287 44.281 48.287s-28.255-28.161-36.901-36.483v0zM460.519 371.772v0c0 0-49.057-71.421-49.28-79.218-4.064 1.633-2.575 7.085-2.575 7.085l51.856 72.132zM445.924 271.822c-1.108-1.51-13.25-4.222-23.025 1.209l-11.308-15.839c-2.596 1.619-5.215 3.072-7.805 4.38l11.998 16.444-1.503 1.108-12.416-16.616c-0.568 0.274-1.137 0.54-1.719 0.798l12.775 16.839c-10.293 8.301-8.114 19.443-6.942 21.033l75.938 107.372c1.209 1.625 4.618 1.173 6.243-0.036 0 0-61.099-99.69-55.582-103.739 7.963-5.855 0.338-0.252 8.877-6.524 6.639-4.892 82.994 83.598 82.994 83.598 1.633-1.201 3.078-4.308 1.87-5.941l-80.397-104.084zM426.466 70.077l-12.861 1.438-0.769-20.724 13.466-1.539 0.123 4.424-8.344 0.942 0.137 3.942 6.315-0.712 0.123 4.359-6.294 0.705 0.13 3.748 7.855-0.892 0.123 4.308zM397.248 73.444c-6.215 0.546-10.861-3.618-11.063-9.632-0.238-6.805 4.495-11.264 9.804-11.747 2.043-0.187 4.237 0.331 5.502 1.33h0.072c0 0-0.050-0.439-0.058-0.877l-0.014-0.582 4.251-0.396 0.216 11.818-7.358 0.662-0.115-4.33 2.928-0.259-0.050-1.604c-1.209-0.827-2.733-1.273-4.237-1.144-3.208 0.295-5.855 2.899-5.733 6.862 0.087 3.050 1.921 5.654 6.222 5.272 1.755-0.158 3.798-1.18 4.949-2.352l2.489 3.553c-2.129 2.122-5.021 3.187-7.805 3.424zM372.065 65.682l-2.187 0.144 0.094 4.999 1.683-0.094c0.841-0.043 1.438-0.173 1.885-0.41 0.942-0.417 1.194-1.209 1.173-2.245-0.029-1.654-1.043-2.489-2.647-2.396zM372.166 75.004l-7.085 0.425-0.482-20.688 5.071-0.324 0.137 7.063 2.36-0.137 3.568-7.294 5.639-0.353-3.928 7.575c-0.482 0.899-0.769 1.302-0.769 1.288v0.072c2.065 0.913 3.122 3.265 3.151 5.445 0.043 2.993-1.396 5.172-3.704 6.193-0.87 0.396-1.877 0.604-3.956 0.733zM345.148 76.306l-4.999 0.202-0.288-12.998c-0.108-4.697 3.244-8.186 8.502-8.394 5.215-0.216 8.661 2.993 8.704 7.697l0.123 13.005-4.978 0.194-0.173-12.998c-0.036-2.194-1.467-3.295-3.618-3.208-2.173 0.079-3.553 1.309-3.524 3.496l0.252 13.005zM325.928 60.611l-3.029 0.087 0.094 4.308 3.050-0.094c1.467-0.036 2.137-1.007 2.115-2.165-0.014-1.166-0.762-2.173-2.23-2.137zM325.647 72.638v0c1.338-0.036 1.87-0.856 1.841-1.805-0.014-0.971-0.575-1.892-1.841-1.856l-2.568 0.065 0.079 3.654 2.489-0.058zM325.748 76.918l-7.488 0.18-0.497-20.673 7.596-0.194c4.108-0.108 7.884 1.46 7.941 6.035 0.014 1.827-0.805 3.964-3.151 4.755l0.007 0.050c1.553 0.856 2.409 2.589 2.432 4.323 0.050 3.524-2.769 5.409-6.841 5.524zM326.072 138.901v0c2.489 1.669 8.733 4.295 8.625 0.432-0.123-3.856-3.661-11.976-12.214-22.198-9.257-11.077-17.947-16.681-20.832-12.214-1.892 2.892 2.396 8.833 4.445 11.365 5.625 7.279 13.588 19.177 19.976 22.615zM260.349 132.168c0.259-3.697 1.805-11.149 3.28-15.81-1.482-4.409-9.811-15.422-16.335-18.149-7.201-3-6.23 4.215-6.208 4.452 0.554 4.899 3.367 13.767 11.574 22.637 0.345 0.381 6.87 6.798 7.69 6.87zM196.984 126.248v0c0.050-2.381 0.266-7.683 3.582-16.709-4.417-9.236-14.429-18.522-12.746-16.868-0.72-0.697-7.488-6.87-10.243-1.964-1.158 6.683 4.036 24.435 19.407 35.541zM317.051 96.584v0c21.148 13.796 28.851 29.377 30.736 37.815 0.798 3.56-0.331 7.502-4.359 10.926-6.394 5.438-18.911 2.532-22.068 1.101-0.446-0.151-0.216 1.007-0.489 1.216-0.87 1.122-2.309 1.611-3.704 1.582-1.043 0.115-1.82-0.705-2.424-1.446-13.034-17.106-25.622-33.268-29.111-37.146-5.956-2.373-9.185 0.539-9.495 1.827 4.402 7.272 5.784 24.406-4.719 29.909-2.762 1.453-9.027 4.467-17.673-0.043 1.647 0.885-11.775-3.431-22.321-26.377-0.813-1.841-13.617-17.594-17.983-9.747 1.935 4.827 6.553 16.602 3.266 24.212-3.374 7.683-14.761 13.279-29.988 2.87-11.264-7.704-19.443-22.169-21.637-29.456-5.381-7.531-15.638-18.81-28.024-26.24-16.638-9.991-36.001-10.596-42.26-0.281-6.121 9.725 3.532 29.478 14.725 45.072 8.020 11.178 34.333 35.678 48.1 37.671 0.741 0.137 8.257 0.274 4.603-9.991-2.805-7.891-10.006-14.796-10.063-14.933 0.036 0.036 0.101 0.065 0.137 0.101-0.108-0.094-0.144-0.108-0.137-0.101-2.086-2.014-8.301-2.396-11.279-3.906-6.481-3.288-6.381-9.027-4.438-11.861 0.791-1.166 3.417-3.784 9.136-1.849 7.294 2.474 15.631 11.171 21.651 19.342 8.589 11.639 8.963 22.651 7.459 26.514-2.561 6.603-16.731 14.746-46.561-4.136-7.898-4.999-18.781-12.696-28.42-23.45-38.051-42.476-21.659-69.946-4.647-75.24 9.337-2.899 17.4-2.978 25.435-1.23 14.653 3.165 30.283 12.832 44.59 30.276 0.374-1.95 5.33-14.113 21.601-8.905 9.092 2.87 16.911 10.401 18.256 12.408 1.338 1.36 2.237 3.072 3.46 4.531 6.351-5.366 18.925-0.036 20.126 1.259 0.202-1.733 1.697-8.625 7.847-11.041 9.754-3.813 20.681 3.057 24.744 6.135 5.236 3.956 8.769 9.106 9.962 10.804 0.921-0.877 4.503-3.604 7.934-4.129-13.415-21.695-20.543-30.175-24.011-36.937-1.683-4.567 6.345-8.308 13.955-2.532 7.754 5.589 12.351 16.185 25.701 37.98 0.453-1.467 7.114-10.027 22.385-2.575zM462.346 48.541v-0.014c-1.87 0.302-3.798 1.769-4.92 2.993l-2.885-3.467c1.892-2.324 4.704-3.798 7.438-4.244 4.848-0.784 7.582 1.834 7.733 5.366 0.266 6.603-8.962 7.38-8.812 10.337 0.043 0.834 0.733 1.366 2.273 1.122 1.625-0.259 3.388-1.366 4.503-2.561l2.309 3.776c-1.726 1.87-4.064 2.993-6.373 3.366-4.323 0.697-7.596-1.302-7.798-5.079-0.338-6.517 8.89-7.531 8.761-10.488-0.050-0.82-0.813-1.36-2.245-1.108zM370.403 123.414c-4.531-3.402-7.452-1.094-5.776 1.417 6.229 10.653 18.249 16.832 18.105 16.781 0.712 0.238 1.496 0.014 2.129-0.331 0.51-0.705 0.51-1.813-0.108-2.46-2.813-6.668-15.221-16.113-14.351-15.408zM422.488 101.605c2.877-4.143 13.019-6.877 24.262-2.259 1.683 0.712 3.452 1.158 5.043 2.043 1.266 0.69 9.236 4.467 14.559 10.308-0.014-0.022 3.424 2.467 0.302 7.675-1.050 1.726-3.762 1.74-5.315 0.36-2.194-1.993-14.645-16.063-26.636-18.033 3.036 0.525-8.207-2.589-3.712 5.294-1.467-1.726 10.401 12.839 18.637 19.947 3.726 3.208 5.043 4.057 5.712 6.366 0.432 1.705-0.374 3.503-0.942 4.928-0.986 2.237-2.309 3.625-3.978 5.373-0.971 0.986-2.582 1.396-3.813 0.662-2.704-1.561-5.502-3.229-8.639-3.668-2.546-0.403-5.294-0.791-7.661 0.381 1.993 1.676 5.287 5.467 6.387 11.005 0.971 4.905 0.13 6.977-0.834 8.373-1.474 2.137-4.373 3.964-8.797 2.316-2.625-0.676-12.329-6.876-13.113-14.581-0.317-3.388 1.245-5.531 1.986-6.294-0.050 0.029-0.022-0.403-2.481-4.438-7.006-11.459-25.579-33.39-46.18-33.397-10.948 0.036-9.459 9.445-8.401 11.876 1.496-1.805 7.2-2.396 11.753-1.791 11.337 1.223 20.659 14.509 22.14 16.437 4.503 7.603 2.712 17.235-5.611 19.364-8.574 2.194-16.666-1.697-22.982-6.69-5.38-4.237-9.474-9.272-11.488-12.048 0.050 0.094 0.123 0.202 0.18 0.31-1.625-1.849-3.079-4.416-4.193-6.819-1.166-2.525-4.661-9.358-1.51-16.904 2.28-5.474 7.495-11.423 22.745-10.625 2.223 0.115 20.241 1.137 42.216 23.392 4.402 4.445 11.329 11.984 14.574 16.271 1.144-0.726 3.784-2.23 8.776-3.273-10.747-14.358-13.473-19.156-14.523-22.961-0.029-0.058-1.432-4.611 1.539-8.898zM442.45 63.395c0.935-0.497 1.158-1.317 1.13-2.366-0.058-1.647-1.108-2.402-2.733-2.194l-2.201 0.302 0.209 5.028 1.69-0.23c0.841-0.115 1.446-0.274 1.906-0.539zM446.183 53.978c-0.474 0.957-0.748 1.374-0.741 1.374v0.058c2.115 0.762 3.229 3.029 3.301 5.244 0.094 2.993-1.302 5.301-3.604 6.502-0.877 0.461-1.892 0.755-3.978 1.029l-7.164 0.971-0.921-20.752 5.107-0.697 0.288 7.071 2.381-0.324 3.438-7.596 5.704-0.777-3.813 7.898zM543.211 130.874l-39.785 7.272v-121.844c0 0.007-0.007 0-0.029 0.007l-32.074-20.716 72.126-12.811-27.895 82.455-0.777 2.338 1.007 2.245 27.428 61.055zM497.563 164.573c-1.058 0.669-2.841 1.647-5.726 2.805-6.934 2.813-16.839 5.431-29.442 7.762-17.012 3.15-38.57 5.719-64.105 7.611-31.276 2.338-78.772 4.136-121.543 4.459h-1.561c-42.77-0.323-90.267-2.129-121.549-4.459-25.529-1.892-47.086-4.459-64.091-7.611-12.609-2.331-22.514-4.949-29.456-7.762-2.863-1.158-4.647-2.137-5.704-2.805v-140.525c9.020 2.029 26.27 5.546 50.669 9.128 21.457 3.165 44.008 5.704 67.011 7.538 27.513 2.223 65.594 3.431 93.885 3.632h20.040c28.298-0.202 66.378-1.417 93.885-3.632 23.003-1.834 45.547-4.373 67.011-7.538 24.399-3.582 41.648-7.099 50.675-9.128v140.525zM82.016 1.692l-25.521 16.473c5.661 1.245 14.264 3.036 25.521 5.014v-21.486zM48.525 16.301v121.844l-39.792-7.272 28.441-63.307-28.679-84.793 72.132 12.818-32.089 20.716c-0.007-0.007-0.014-0.007-0.014-0.007v0zM469.935 1.692l25.514 16.473c-5.654 1.245-14.264 3.036-25.514 5.014v-21.486zM551.943-24.764l-87.649 15.558-0.108 33.369c-36.375 6.135-106.156 13.682-182.159 13.947-5.495 0.029-10.789 0.007-12.163 0h0.058c-76.017-0.266-145.798-7.812-182.166-13.947l-0.1-33.369-87.656-15.558 31.103 91.993-30.614 68.176 48.043 8.79v23.284c0 0 22.86 24.421 226.663 25.996 0.216 0 0.425 0 0.633 0 0.014 0 0.087 0 0.151 0v0c0.029 0 0.058 0 0.087 0 0.151 0 0.31 0 0.338 0v0c0.123 0 0.238 0 0.36 0 203.803-1.576 226.655-25.996 226.655-25.996l0.007-23.284 48.043-8.79-30.614-68.177 31.088-91.993z" horiz-adv-x="552" />
<glyph unicode="&#xe608;" d="M212.352-25.6c-11.136 0-21.683 5.197-28.441 14.157l-91.495 120.781c-11.904 15.719-8.806 38.093 6.912 49.997 15.744 11.929 38.093 8.806 49.997-6.912l60.185-79.463 151.347 242.97c10.419 16.717 32.435 21.837 49.178 11.417 16.717-10.393 21.837-32.435 11.392-49.152l-178.765-286.976c-6.221-10.010-16.947-16.281-28.697-16.793-0.537-0.026-1.075-0.026-1.613-0.026z" />
<glyph unicode="&#xe609;" d="M389.094 179.2h-266.214c-14.157 0-15.36-11.469-15.36-25.6s1.203-25.6 15.36-25.6h266.214c14.157 0 15.385 11.469 15.385 25.6s-1.229 25.6-15.385 25.6z" />
<glyph unicode="&#xe60a;" d="M389.094 179.2h-107.52v107.52c0 14.131-11.443 15.36-25.6 15.36-14.131 0-25.6-1.203-25.6-15.36v-107.52h-107.495c-14.157 0-15.36-11.469-15.36-25.6s1.203-25.6 15.36-25.6h107.495v-107.52c0-14.131 11.469-15.36 25.6-15.36 14.157 0 25.6 1.229 25.6 15.36v107.52h107.52c14.157 0 15.385 11.469 15.385 25.6s-1.229 25.6-15.385 25.6z" />
<glyph unicode="&#xe60b;" d="M292.787 293.99c-10.701-10.445-115.251-120.217-115.251-120.217-5.709-5.581-8.55-12.877-8.55-20.173s2.841-14.592 8.55-20.173c0 0 104.551-109.773 115.251-120.192 10.701-10.445 29.952-11.161 41.37 0 11.392 11.136 12.288 26.675-0.026 40.32l-95.923 100.045 95.923 100.045c12.313 13.671 11.418 29.209 0.026 40.346-11.443 11.136-30.695 10.445-41.37 0z" />
<glyph unicode="&#xe60c;" d="M396.365 190.387c-10.419-10.701-120.192-115.277-120.192-115.277-5.581-5.709-12.877-8.55-20.173-8.55-7.322 0-14.618 2.841-20.173 8.55 0 0-109.773 104.576-120.218 115.277-10.419 10.701-11.136 29.927 0 41.37 11.162 11.417 26.701 12.314 40.345 0l100.045-95.949 100.019 95.923c13.671 12.314 29.235 11.417 40.346 0 11.161-11.417 10.471-30.669 0-41.344z" />
<glyph unicode="&#xe60d;" d="M396.365 116.813c-10.419 10.701-120.192 115.251-120.192 115.251-5.581 5.709-12.877 8.576-20.173 8.576-7.322 0-14.618-2.867-20.173-8.576 0 0-109.773-104.551-120.218-115.251-10.419-10.701-11.136-29.952 0-41.37 11.162-11.392 26.701-12.313 40.345 0l100.045 95.923 100.019-95.923c13.671-12.313 29.235-11.392 40.346 0 11.161 11.443 10.471 30.695 0 41.37z" />
<glyph unicode="&#xe60e;" d="M219.213 293.99c10.701-10.445 115.251-120.217 115.251-120.217 5.735-5.581 8.576-12.877 8.576-20.173s-2.841-14.592-8.576-20.173c0 0-104.55-109.773-115.251-120.192-10.701-10.445-29.927-11.161-41.369 0-11.417 11.136-12.314 26.675 0 40.32l95.949 100.045-95.923 100.045c-12.314 13.671-11.417 29.209 0 40.346s30.669 10.445 41.344 0z" />
<glyph unicode="&#xe60f;" d="M317.414 66.099c6.861-6.938 6.861-18.151 0-25.063-6.861-6.938-17.945-6.938-24.807 0l-98.048 100.019c-6.861 6.938-6.861 18.15 0 25.063l98.048 100.045c6.861 6.938 17.945 6.938 24.807 0s6.861-18.125 0-25.063l-80.384-87.501 80.384-87.501z" />
<glyph unicode="&#xe610;" d="M343.501 215.015c6.938 6.861 18.151 6.861 25.063 0 6.938-6.861 6.938-17.946 0-24.806l-100.019-98.048c-6.938-6.861-18.15-6.861-25.063 0l-100.045 98.048c-6.912 6.861-6.912 17.946 0 24.806 6.938 6.861 18.125 6.861 25.063 0l87.501-80.384 87.501 80.384z" />
<glyph unicode="&#xe611;" d="M168.474 92.186c-6.938-6.861-18.125-6.861-25.063 0-6.912 6.861-6.938 17.945 0 24.832l100.045 97.997c6.938 6.861 18.151 6.861 25.063 0l100.045-98.022c6.938-6.887 6.938-17.971 0-24.832s-18.125-6.861-25.063 0l-87.526 80.409-87.501-80.384z" />
<glyph unicode="&#xe612;" d="M194.585 66.099c-6.861-6.938-6.861-18.151 0-25.063 6.835-6.938 17.946-6.938 24.806 0l98.048 100.019c6.861 6.938 6.861 18.15 0 25.063l-98.048 100.045c-6.861 6.938-17.946 6.938-24.806 0s-6.861-18.125-0.025-25.037l80.409-87.527-80.384-87.501z" />
<glyph unicode="&#xe613;" d="M368.615-36.301c6.861-6.938 6.861-18.125 0-25.063s-17.945-6.938-24.807 0l-200.448 202.419c-6.861 6.938-6.861 18.15 0 25.063l200.448 202.445c6.861 6.938 17.945 6.938 24.807 0s6.861-18.125 0-25.063l-182.784-189.901 182.784-189.901z" />
<glyph unicode="&#xe614;" d="M66.099 266.215c-6.938 6.861-18.151 6.861-25.063 0-6.912-6.835-6.912-17.946 0-24.807l202.445-200.448c6.938-6.861 18.125-6.861 25.063 0l202.445 200.448c6.912 6.861 6.938 17.946 0 24.806s-18.176 6.861-25.063 0.025l-189.927-182.809-189.901 182.784z" />
<glyph unicode="&#xe615;" d="M445.901 40.986c6.938-6.861 18.151-6.861 25.063 0 6.938 6.861 6.938 17.945 0 24.807l-202.445 200.448c-6.912 6.861-18.125 6.861-25.037 0l-202.445-200.448c-6.912-6.861-6.938-17.945 0-24.807s18.125-6.861 25.063 0l189.901 182.81 189.901-182.81z" />
<glyph unicode="&#xe616;" d="M143.352-36.301c-6.861-6.938-6.861-18.125 0-25.063s17.946-6.938 24.806 0l200.448 202.419c6.861 6.938 6.861 18.15 0 25.063l-200.448 202.445c-6.861 6.938-17.946 6.938-24.806 0s-6.861-18.125 0-25.063l182.784-189.901-182.784-189.901z" />
</font>
</defs>
</svg>
