<?xml version="1.0" encoding="utf-8"?>
<!-- Generator: Adobe Illustrator 20.1.0, SVG Export Plug-In . SVG Version: 6.00 Build 0)  -->
<svg version="1.1" id="Layer_1" xmlns="http://www.w3.org/2000/svg" xmlns:xlink="http://www.w3.org/1999/xlink" x="0px" y="0px"
	 viewBox="0 0 2307 624" style="enable-background:new 0 0 2307 624;" xml:space="preserve">
<style type="text/css">
	.st0{fill:#FFFFFF;}
</style>
<g>
	<g>
		<path class="st0" d="M1867.5,28H2268c10.6,0.7,16.1,13.3,13.1,22.6l0.9-4.6v383.9c-0.4,7.1,0.3,16.1-5.9,21.2
			c-4.9,4.5-12,3.3-18.1,3.4c-129.6,0-259.3,0-388.9,0c-5.3,0.2-10.6-2.8-13-7.6c-2.2-4-1.6-8.6-1.6-13c0-130.6,0-261.2,0-391.8
			C1854.3,35,1860.3,28.5,1867.5,28z M1883,56.4c0,123.2,0,246.5,0,369.7c123.2,0,246.5,0,369.7,0c0-123.2,0-246.5,0-369.7
			C2129.4,56.4,2006.2,56.4,1883,56.4z"/>
	</g>
	<path class="st0" d="M493.6,83.8c22.4-2.2,45.8,0.5,66.1,10.4c4.9,2.7,11,5.3,12.6,11.2c1.4,4.3-0.4,8.7-2.9,12.1
		c-3.7,5.2-6.3,12.6-13.5,13.5c-6.2,1.3-10.4-4.2-15.6-6.4c-14.9-7.1-32.1-8.4-48.2-5.9c-12.9,2.1-25.5,8.8-32.3,20.2
		c-7.5,12.1-8.2,27.6-3.7,40.9c4,11.6,13.8,19.9,24,26c13.1,8.1,27.8,12.7,41.6,19.3c14.6,7,28.8,15.3,40.2,26.9
		c9.8,9.9,16.8,22.6,19.9,36.2c4,17.9,3.3,37-3.3,54.2c-5.9,15.6-16.5,29.3-30.1,38.9c-13.9,9.9-30.5,15.3-47.3,17.2
		c-20.7,2.4-41.8-0.3-61.5-7c-9.6-3.4-19.1-7.7-27.3-13.8c-4.6-3.4-6-10.4-2.9-15.3c2.3-3.7,4.7-7.4,7.1-11c2.6-4,7.7-6.2,12.3-5.2
		c2.7,0.5,4.9,2.3,7.2,3.7c20.2,12.9,45.5,18,69,12.8c13.4-2.9,26.2-10.3,33.7-22.1c8.2-12.5,9.2-28.3,6.4-42.6
		c-2-10.8-8.6-20.4-17.1-27.1c-11.2-9-24.7-14.7-38.1-19.5c-21.7-8.4-43.1-19.9-57.8-38.4c-22.2-27.9-21.3-71.2,1.6-98.4
		C448.3,96.6,470.8,86.3,493.6,83.8z"/>
	<path class="st0" d="M697.3,105.3c30.2-17.5,66.2-23,100.7-20.3c18,1.6,35.9,5.3,52.5,12.4c5.1,1.8,8.5,7.3,7.7,12.6
		c-0.9,4.6-3.8,8.4-5.5,12.7c-1.5,3.8-4.7,7.1-8.8,8c-3.6,1-7.2-0.5-10.5-2c-20.1-9-42.7-11.3-64.5-9.6
		c-17.7,1.5-35.3,6.2-50.8,15.1c-14.1,8-26.2,19.3-35.2,32.8c-10.5,15.8-16.6,34.1-19.1,52.8c-2.7,20.4-1.7,41.4,3.7,61.4
		c4.5,16.9,12.3,33.1,23.7,46.5c10,11.8,22.8,21,37.1,26.9c16.6,6.9,34.7,9.3,52.6,8.9c16.1-0.3,32.5-1.8,47.7-7.5
		c0-28.8,0-57.7,0-86.5c-18.9,0-37.8,0-56.7,0c-6.2,0.3-12-5.1-12-11.4c-0.1-4.4-0.1-8.7,0-13.1c0.3-6.1,6-11.1,12-10.8
		c27.4,0,54.8,0,82.1,0c6.5-0.4,12.4,5.4,12.1,11.9c0,41.3,0,82.7,0,124c0.3,4.9-2.7,9.9-7.3,11.7c-29.9,12.4-62.7,17.5-95,16.1
		c-31.8-1.4-63.8-11.8-88.2-32.6c-24.6-20.5-40.2-50.3-46.6-81.5c-7.8-38.4-5.2-79.6,11.4-115.4
		C652.5,142.3,672.3,119.6,697.3,105.3z"/>
	<path class="st0" d="M1065.5,85.8c27.9-1.8,57,0.3,82.8,12c4.8,1.6,8.3,7,6.6,12.1c-1.7,4.2-3.8,8.2-5.8,12.3
		c-2,4.7-8.2,6.9-12.7,4.5c-15-7.6-31.7-11-48.4-11.7c-18.5-0.7-37.4,1.6-54.8,8.3c-13.8,5.3-26.6,13.4-37,24
		c-11.4,11.5-19.9,25.6-25.4,40.8c-6.9,18.9-9.4,39.1-9.1,59.1c0.3,18.7,3.2,37.6,10.3,55.1c5.7,14.1,14.3,27.2,25.6,37.5
		c11.3,10.4,25.2,17.8,39.9,22.1c17.8,5.2,36.7,6.3,55.2,4.6c14.1-1.4,28.1-4.4,41.1-10.1c3-1.2,5.8-3.4,9.2-3.1
		c3.5,0.1,6.7,2.5,8.2,5.7c1.8,3.8,4.1,7.5,5.7,11.5c1.5,4.8-1.6,9.9-6.1,11.6c-23.6,11-50,14.3-75.8,15c-34.6,1-70.2-9.3-97-31.8
		c-21.2-17.6-35.7-42.5-42.7-69c-6.2-23.1-7.7-47.2-5.9-71c2.6-32.3,13.8-64.5,34.9-89.4c18.9-22.6,45.4-38.3,73.9-45.3
		C1047.2,88,1056.3,86.5,1065.5,85.8z"/>
	<g>
		<path class="st0" d="M1318.5,85.7c21.4-1.7,43.4,1.1,63.2,9.5c26.3,10.9,47.7,32,60.8,57.2c17.2,32.8,21.6,71,18.4,107.6
			c-2.9,32.9-13.8,66-35.3,91.5c-21.2,25.4-52.5,42-85.5,45.1c-24,2.3-48.7-1.8-70.3-12.7c-25.9-12.9-46.2-35.6-58.2-61.7
			c-15.9-34.2-19-73.2-14-110.2c4.7-33.8,18.3-67.2,42.9-91.3C1261.2,100,1289.5,87.9,1318.5,85.7z M1318.5,115.8
			c-14.1,1.5-27.9,6.2-39.8,14c-13,8.5-23.4,20.6-31.1,34c-9.5,16.7-15,35.3-17.6,54.3c-5.1,34.1,0.9,70,18.1,100
			c7.7,13.4,17.9,25.4,30.6,34.3c31,21.8,76.3,19.7,105.7-3.9c25.2-20.2,38.2-51.9,42.7-83.2c3.3-22.8,2.2-46.2-3.6-68.5
			c-4.2-15.9-10.8-31.3-20.6-44.6c-9.1-12.4-21.1-22.8-35.1-29.1C1352.5,115.9,1335.2,114,1318.5,115.8z"/>
	</g>
	<path class="st0" d="M25,98.4c0.5-5.6,5.2-10.7,11-10.9c4.7-0.1,9.4-0.1,14.1,0c6.2-0.1,11.7,5.5,11.6,11.7
		c0.1,57.9,0,115.9,0,173.8c0.2,17.8,2.3,35.8,9.1,52.4c5.2,12.9,14,24.7,26.2,31.7c15.1,8.6,33.6,9.6,50.3,6
		c15.6-3.3,29.6-13.1,38.1-26.6c11.9-18.8,15.2-41.5,15.5-63.4c0.1-57.7,0-115.4,0-173.1c-0.4-6.3,4.8-12.3,11.2-12.4
		c5-0.1,10-0.2,15,0c5.8,0.4,10.7,5.7,10.6,11.5c0.1,56,0,111.9,0,167.9c0.2,24-2.7,48.4-12.2,70.6c-7.3,17.5-19.1,33.3-34.8,44.1
		c-16.3,11.4-36,16.9-55.7,17.8c-20.9,1.1-42.6-2.7-60.6-13.9c-16.9-10.3-29.6-26.6-37.3-44.7c-8.3-19.4-11.5-40.6-12.1-61.6V98.4z"
		/>
	<path class="st0" d="M322.5,87.7c5.2-0.5,10.4-0.2,15.6-0.2c6.5-0.2,12.2,5.9,11.8,12.4c0,94.4,0,188.8,0,283.2
		c0.2,6-4.8,11.7-10.8,12c-4.7,0.2-9.4,0.1-14.1,0.1c-6.5,0.2-12.2-5.7-11.9-12.1c0-94.4,0-188.8,0-283.1
		C312.7,94.2,316.9,88.8,322.5,87.7z"/>
	<path class="st0" d="M1522.4,100c-0.4-5,3.6-9.8,8.6-10.1c4.7-0.1,9.4-0.1,14.1,0c3.3,0.1,6.1,2.4,7.8,5.2
		c41.6,63,83.5,125.8,125,188.9c8.9,13.8,17.9,27.6,26.4,41.6c-1.3-48.9-0.5-97.8-0.8-146.7c0-26.3,0-52.7,0-79
		c-0.2-3.5,1.6-7,4.6-8.8c2.6-1.7,5.8-1.3,8.8-1.4c3.7,0.1,7.4-0.2,11,0.2c4.6,0.8,8,5.3,7.7,10c0,94.4,0,188.7,0,283.1
		c0.2,4.8-3.8,9.4-8.6,9.6c-4.1,0.2-8.1,0-12.1,0.1c-3.9,0.4-8-1.2-10-4.7c-43.1-65.6-86.3-131.1-129.3-196.8
		c-7.3-11.2-14.6-22.5-21.5-34c0.7,50.5,0.2,101.1,0.4,151.6c0,24.7,0,49.4,0,74c0.2,5.1-4.3,9.9-9.4,9.8c-4.7,0-9.4,0.1-14.1,0
		c-4.8-0.3-8.8-4.9-8.6-9.7C1522.3,288.7,1522.4,194.4,1522.4,100z"/>
	<path class="st0" d="M1991.5,152c7.2,0,14.3,0,21.5,0c0,61.3,0,122.7,0,184c-10.3,0-20.6,0-30.9,0c0-43.5,0-87,0-130.5
		c-13,9.4-27.3,17.1-42.6,22.3c0-10.1,0-20.2,0-30.4c14.4-6.6,28-15.3,39-26.9C1983.8,165.1,1988.4,158.9,1991.5,152z"/>
	<path class="st0" d="M2088.7,165.7c16.1-14.6,40.6-17.2,60.6-9.9c15.2,5.4,27.9,18.1,31.9,33.9c4.9,16.7-1.3,36.1-15.7,46.2
		c7.5,3.6,14.1,9.1,18.4,16.2c6.7,10.7,8.4,23.8,6.8,36.1c-1.9,16.1-11.7,30.5-24.8,39.7c-14.8,10.5-34.1,13.2-51.8,10
		c-16.8-3.1-31.9-14.2-39.8-29.4c-4.4-8.4-6.3-17.8-6.8-27.2c10-1.3,20.1-2.7,30.1-4c2,9.7,4.3,20.1,11.5,27.4
		c10.8,10.6,29.8,9.3,40.3-1c12.4-11.3,13.2-33.5,0.6-44.9c-5.1-4.9-12.2-7.2-19.2-7.3c-7.4-0.2-14.5,2.1-21.6,3.9
		c1.2-10,2.5-20.1,3.7-30.1c9.9,1.2,20.3,0.1,28.8-5.4c12.6-7.2,12.7-27.7,1.1-36c-10.4-7.7-26.9-6.2-35,4.1
		c-5.3,6.5-6.9,15.1-8,23.2c-10.3-1.8-20.5-3.7-30.8-5.5C2071.2,190.8,2077.1,175.8,2088.7,165.7z"/>
	<path class="st0" d="M100.1,554.8c2,0,4.1,0,6.1,0c0,13.4,0,26.9,0,40.3c-2,0-4.1,0-6.1,0c0-6.1,0-12.2,0-18.3
		c-5.5,0-10.9,0-16.4,0c0,6.1,0,12.2,0,18.3c-2,0-4.1,0-6.1,0c0-13.4,0-26.9,0-40.3c2,0,4.1,0,6.1,0c0,5.5,0,11.1,0,16.7
		c5.5,0,10.9,0,16.4,0C100.1,565.9,100.1,560.4,100.1,554.8z"/>
	<g>
		<path class="st0" d="M1021.8,558.8c6-6.1,17.3-6.2,23.1,0.3c3.9,4.3,5.2,10.3,5.2,15.9c-0.1,5.6-1.4,11.6-5.3,15.8
			c-2.7,2.9-6.5,4.3-10.2,5.2h-3.5c-3.4-0.9-6.9-2.1-9.4-4.7c-4.2-4.2-5.8-10.5-5.7-16.3C1016,569.1,1017.6,563,1021.8,558.8z
			 M1030.4,559.6c-5.2,1.7-7.3,7.5-7.8,12.5c-0.5,5.6,0.3,11.8,4.3,16c3.2,3.4,9,3.4,12.3,0.2c3.3-3.2,4.3-7.9,4.6-12.2
			c0.2-4.8-0.7-10-3.9-13.8C1037.6,559.5,1033.7,558.5,1030.4,559.6z"/>
	</g>
	<g>
		<path class="st0" d="M1257.6,557.6c6.7-5.4,17.9-4.4,23,2.8c5,7.2,5.2,17.1,2.1,25.1c-2.2,5.7-7.6,9.3-13.4,10.4h-3.6
			c-3.8-0.9-7.6-2.4-10.2-5.4c-4.2-4.7-5.4-11.4-5-17.5C1250.8,567.3,1252.9,561.3,1257.6,557.6z M1264.4,559.7
			c-4.5,1.7-6.6,6.7-7.3,11.1c-0.8,5.9-0.1,12.6,4,17.1c3.1,3.4,8.9,3.6,12.2,0.5c3.4-3.1,4.5-8,4.8-12.5c0.2-4.9-0.8-10.2-4.1-14
			C1271.7,559.4,1267.7,558.5,1264.4,559.7z"/>
	</g>
	<path class="st0" d="M1321.4,554.8c1.9,0,3.8,0,5.7,0c0,13.4,0,26.9,0,40.3c-2.1,0-4.1,0-6.2,0c-6-10.9-12.5-21.5-17.5-32.9
		c0.6,10.9,0.4,21.9,0.5,32.9c-1.9,0-3.8,0-5.7,0c0-13.5,0-26.9,0-40.3c2.2,0,4.4,0,6.7,0c5.8,10.7,12.5,21,17.3,32.3
		C1321.1,576.4,1321.4,565.6,1321.4,554.8z"/>
	<path class="st0" d="M1362.8,556.8c5-3.5,11.8-3,17.3-0.9c-0.5,1.6-0.9,3.3-1.4,4.9c-3.8-1.2-8.4-2.6-12-0.2
		c-2.8,1.9-2.7,6.5,0.1,8.4c3.5,2.7,8.2,3.6,11.4,6.7c4.7,4.1,4.6,12.3,0,16.4c-2.4,2.2-5.6,3.1-8.7,3.8h-3.6
		c-2.8-0.6-5.4-1.5-8-2.4c0.4-1.8,0.8-3.5,1.2-5.2c4.1,1.8,9.1,3.3,13.4,1.2c3.7-1.8,3.9-7.5,0.8-10c-3.8-3-9.1-3.8-12.3-7.6
		C1357,567.7,1358,560.1,1362.8,556.8z"/>
	<path class="st0" d="M1435.7,557.7c5.9-4.1,13.7-4.3,20.4-2c-0.4,1.6-0.9,3.3-1.3,5c-4.9-1.7-10.7-2.2-15.1,1
		c-4.5,3.2-5.9,9.2-5.6,14.4c0.1,4.8,1.9,10.2,6.3,12.7c4.4,2.6,9.8,1.9,14.5,0.5c0.3,1.6,0.7,3.3,1,5c-2.7,0.8-5.4,1.6-8.2,1.9
		h-2.1c-4.7-0.7-9.6-2.2-12.8-5.8c-4.5-4.8-5.6-11.9-4.9-18.2C1428.4,566.4,1431,560.9,1435.7,557.7z"/>
	<g>
		<path class="st0" d="M1751.8,558.8c5.9-6,16.7-6.2,22.6-0.2c4.3,4.3,5.8,10.5,5.7,16.4c-0.1,5.6-1.4,11.6-5.4,15.8
			c-2.7,2.9-6.5,4.3-10.2,5.2h-3.6c-3.4-0.9-6.9-2.1-9.4-4.7c-4.3-4.2-5.8-10.5-5.8-16.4C1745.9,569.2,1747.6,563,1751.8,558.8z
			 M1760.4,559.6c-5.2,1.7-7.3,7.5-7.8,12.5c-0.5,5.5,0.3,11.8,4.3,16c3,3.2,8.5,3.5,11.8,0.6c3.6-3.1,4.8-8,5.1-12.6
			c0.2-4.8-0.7-10.1-3.9-13.9C1767.6,559.5,1763.7,558.5,1760.4,559.6z"/>
	</g>
	<path class="st0" d="M1899.1,557.2c5.8-3.6,13.2-3.7,19.6-1.5c-0.5,1.7-0.9,3.3-1.3,5c-5-1.8-11.1-2.2-15.5,1.3
		c-4.5,3.5-5.6,9.7-5.2,15.1c0.3,4.6,2.2,9.4,6.4,11.8c4.4,2.5,9.7,1.8,14.4,0.4c0.3,1.6,0.7,3.3,1,5c-2.7,0.8-5.4,1.5-8.1,1.9h-2.2
		c-4.8-0.7-9.9-2.3-13.1-6.2c-4.5-5.1-5.4-12.4-4.5-18.9C1891.4,565.5,1894.3,560.1,1899.1,557.2z"/>
	<g>
		<path class="st0" d="M1935,557.9c6.7-5.7,18.3-4.8,23.3,2.7c4.9,7.2,5,16.9,2.1,24.8c-2.1,5.8-7.6,9.5-13.4,10.6h-3.7
			c-3.7-0.8-7.5-2.3-10.1-5.2c-4.1-4.5-5.4-10.9-5.2-16.8C1928.3,568,1930.3,561.8,1935,557.9z M1942.4,559.6
			c-4.7,1.7-6.8,6.8-7.5,11.3c-0.8,5.8-0.1,12.5,4.1,17c3.1,3.4,9,3.6,12.3,0.4c3.3-3.1,4.4-7.9,4.7-12.3c0.2-4.9-0.7-10.2-4-13.9
			C1949.6,559.4,1945.7,558.5,1942.4,559.6z"/>
	</g>
	<path class="st0" d="M2213.6,557.5c5.9-4,13.6-4.1,20.2-1.9c-0.4,1.7-0.9,3.3-1.2,5c-5-1.8-11.1-2.2-15.5,1.3
		c-4.8,3.8-5.8,10.4-5.1,16.1c0.4,4.5,2.7,9.1,6.9,11c4.3,2.1,9.3,1.4,13.8,0.1c0.3,1.6,0.6,3.3,1,5c-2.7,0.8-5.4,1.5-8.1,1.9h-2.2
		c-4.6-0.6-9.4-2.1-12.7-5.6c-4.4-4.6-5.7-11.3-5.2-17.5C2205.8,567,2208.5,560.9,2213.6,557.5z"/>
	<path class="st0" d="M37.8,554.8c9.3,0,18.6,0,27.8,0c0,1.7,0,3.5,0,5.2c-3.6,0-7.2,0-10.8,0c0,11.7,0,23.4,0,35.1c-2,0-4,0-6.1,0
		c0-11.7,0-23.4,0-35.1c-3.6,0-7.2,0-10.8,0C37.8,558.3,37.8,556.5,37.8,554.8z"/>
	<path class="st0" d="M121.7,554.8c7,0,14,0,21,0c0,1.7,0,3.4,0,5.1c-5,0-9.9,0-14.9,0c0,3.9,0,7.7,0,11.6c4.7,0,9.4,0,14.1,0
		c0,1.7,0,3.4,0,5c-4.7,0-9.4,0-14.1,0c0,4.5,0,8.9,0,13.4c5.3,0,10.6,0,15.8,0c0,1.7,0,3.4,0,5.2c-7.3,0-14.6,0-21.9,0
		C121.7,581.7,121.7,568.3,121.7,554.8z"/>
	<path class="st0" d="M170.4,554.8c9.3,0,18.6,0,27.8,0c0,1.7,0,3.5,0,5.2c-3.6,0-7.3,0-10.9,0c0,11.7,0,23.4,0,35.1
		c-2,0-4.1,0-6.1,0c0-11.7,0-23.4,0-35.1c-3.6,0-7.2,0-10.8,0C170.4,558.3,170.4,556.5,170.4,554.8z"/>
	<path class="st0" d="M210.2,554.8c2,0,4,0,6.1,0c0,5.6,0,11.1,0,16.7c5.5-0.1,10.9,0,16.4,0c0-5.6,0-11.1,0-16.7c2,0,4.1,0,6.1,0
		c0,13.5,0,26.9,0,40.3c-2,0-4.1,0-6.1,0c0-6.1,0-12.2,0-18.3c-5.5,0-10.9,0-16.4,0c0,6.1,0,12.2,0,18.3c-2,0-4,0-6.1,0
		C210.2,581.7,210.2,568.3,210.2,554.8z"/>
	<path class="st0" d="M254.2,554.8c2,0,4.1,0,6.1,0c0,13.4,0,26.9,0,40.3c-2,0-4.1,0-6.1,0C254.2,581.7,254.2,568.3,254.2,554.8z"/>
	<g>
		<path class="st0" d="M275.7,555.3c6.7-0.8,14.2-2.1,20.3,1.6c6.7,4.6,5,16.3-2.7,19c2.1,1.3,3.8,3.1,4.5,5.5
			c1.4,4.5,2.1,9.3,3.7,13.8c-2.1,0-4.2,0-6.3,0c-1.9-4.6-1.8-9.9-4.1-14.3c-1.9-3.3-6.1-2.7-9.3-2.8c0,5.7,0,11.4,0,17.1
			c-2,0-4.1,0-6.1,0C275.7,581.8,275.6,568.5,275.7,555.3z M281.7,559.5c0,4.6,0,9.3,0,13.9c3.1-0.1,6.6,0.4,9.3-1.4
			c4-2.5,4-9.6-0.3-11.8C288,558.8,284.7,559.3,281.7,559.5z"/>
	</g>
	<path class="st0" d="M310.8,554.8c9.3,0,18.6,0,27.8,0c0,1.7,0,3.5,0,5.2c-3.6,0-7.2,0-10.9,0c0,11.7,0,23.4,0,35.1
		c-2,0-4.1,0-6.1,0c0-11.7,0-23.4,0-35.1c-3.6,0-7.2,0-10.9,0C310.8,558.3,310.8,556.5,310.8,554.8z"/>
	<path class="st0" d="M350.7,554.8c7,0,14,0,21,0c0,1.7,0,3.4,0,5.1c-5,0-9.9,0-14.9,0c0,3.9,0,7.7,0,11.6c4.7,0,9.4,0,14.1,0
		c0,1.7,0,3.4,0,5.1c-4.7,0-9.4,0-14.1,0c0,4.5,0,8.9,0,13.4c5.3,0,10.5,0,15.8,0c0,1.7,0,3.5,0,5.2c-7.3,0-14.6,0-21.9,0
		C350.7,581.7,350.6,568.3,350.7,554.8z"/>
	<path class="st0" d="M385.5,554.8c7,0,14,0,21,0c0,1.7,0,3.4,0,5.1c-5,0-9.9,0-14.9,0c0,3.9,0,7.7,0,11.6c4.7,0,9.4,0,14.1,0
		c0,1.7,0,3.4,0,5c-4.7,0-9.4,0-14.1,0c0,4.5,0,8.9,0,13.4c5.3,0,10.5,0,15.8,0c0,1.7,0,3.4,0,5.2c-7.3,0-14.6,0-21.9,0
		C385.5,581.7,385.5,568.3,385.5,554.8z"/>
	<path class="st0" d="M420.4,595.1c0-13.4,0-26.9,0-40.3c2.2,0,4.4,0,6.7,0c5.9,10.7,12.6,21.1,17.3,32.4c-1-10.8-0.6-21.6-0.7-32.4
		c1.9,0,3.8,0,5.7,0c0,13.4,0,26.9,0,40.3c-2.1,0-4.1,0-6.2,0c-6-10.9-12.6-21.4-17.5-32.9c0.5,10.9,0.3,21.9,0.4,32.9
		C424.1,595.1,422.2,595.1,420.4,595.1z"/>
	<path class="st0" d="M461.2,554.8c9.3,0,18.5,0,27.8,0c0,1.7,0,3.5,0,5.2c-3.6,0-7.2,0-10.9,0c0,11.7,0,23.4,0,35.1
		c-2,0-4.1,0-6.1,0c0-11.7,0-23.4,0-35.1c-3.6,0-7.2,0-10.8,0C461.2,558.3,461.2,556.5,461.2,554.8z"/>
	<path class="st0" d="M501.1,554.8c2,0,4,0,6,0c0,5.5,0,11.1,0,16.6c5.5,0,10.9,0,16.4,0c0-5.5,0-11.1,0-16.6c2,0,4.1,0,6.1,0
		c0,13.4,0,26.9,0,40.3c-2,0-4.1,0-6.1,0c0-6.1,0-12.2,0-18.3c-5.5,0-11,0-16.4,0c0,6.1,0,12.2,0,18.3c-2,0-4,0-6,0
		C501.1,581.7,501.1,568.3,501.1,554.8z"/>
	<path class="st0" d="M562.4,579c0-8.1,0-16.2,0-24.2c2,0,4.1,0,6.1,0c0,7.7,0,15.5,0,23.2c0,3.4,0.2,7.2,2.4,10
		c2.8,3.7,9.3,3.4,11.8-0.5c1.8-2.8,2-6.3,2-9.5c0-7.7,0-15.5,0-23.2c2,0,4.1,0,6.1,0c0,8.1,0,16.2,0,24.3c0,4.5-0.9,9.3-4.1,12.7
		c-2.2,2.4-5.4,3.4-8.4,4.2h-3.6c-3.1-0.7-6.3-1.8-8.4-4.2C563.1,588.3,562.4,583.5,562.4,579z"/>
	<path class="st0" d="M606.1,554.8c2,0,4,0,6,0c0,6.3,0,12.7,0,19.1c4.2-6.5,9-12.8,13.5-19.1c2.5,0,4.9,0,7.4,0
		c-4.4,5.7-8.8,11.5-13.2,17.2c4.6,7.7,9.3,15.4,14,23.1c-2.4,0-4.8,0-7.1,0c-3.7-6.3-7.5-12.7-11.2-19c-1.1,1.4-2.2,2.8-3.4,4.2
		c0,4.9,0,9.9,0,14.8c-2,0-4,0-6,0C606.1,581.7,606.1,568.3,606.1,554.8z"/>
	<g>
		<path class="st0" d="M645.5,555.3c6.8-0.8,14.5-2.1,20.5,1.8c6.4,4.8,4.6,16-2.9,18.8c6.6,4.1,5.4,12.9,8.2,19.3
			c-2.1,0-4.2,0-6.3,0c-1.8-4.6-1.9-9.7-4-14.2c-1.8-3.5-6.2-3-9.5-2.9c0,5.7,0,11.4,0,17.1c-2,0-4,0-6,0
			C645.4,581.8,645.4,568.6,645.5,555.3z M651.5,559.5c0,4.7,0,9.3,0,14c3.2-0.1,6.7,0.4,9.4-1.5c3.9-2.6,3.9-9.4-0.3-11.7
			C657.8,558.8,654.5,559.3,651.5,559.5z"/>
	</g>
	<g>
		<path class="st0" d="M682.2,595.1c4.1-13.4,8.3-26.9,12.4-40.3c2.5,0,5,0,7.5,0c4.1,13.4,8.2,26.9,12.3,40.3c-2.1,0-4.3,0-6.4,0
			c-1.2-4-2.5-7.9-3.7-11.9c-4.1,0-8.2,0-12.3,0c-1.2,4-2.4,7.9-3.5,11.9C686.4,595.1,684.3,595.1,682.2,595.1z M692.9,578.6
			c3.5,0,6.9,0,10.4,0c-1.9-6.2-3.9-12.4-5.2-18.7C696.8,566.2,694.9,572.4,692.9,578.6z"/>
	</g>
	<path class="st0" d="M726.9,554.8c2,0,4.1,0,6.1,0c0,13.5,0,26.9,0,40.3c-2,0-4.1,0-6.1,0C726.9,581.7,726.9,568.3,726.9,554.8z"/>
	<path class="st0" d="M748.4,595.1c0-13.4,0-26.9,0-40.3c2.2,0,4.4,0,6.6,0c5.9,10.7,12.5,21,17.3,32.3c-0.9-10.7-0.6-21.5-0.7-32.3
		c1.9,0,3.8,0,5.7,0c0,13.5,0,26.9,0,40.3c-2.1,0-4.1,0-6.2,0c-6-10.9-12.6-21.5-17.5-32.9c0.6,10.9,0.4,21.9,0.4,32.9
		C752.2,595.1,750.3,595.1,748.4,595.1z"/>
	<path class="st0" d="M792.7,554.8c2,0,4.1,0,6.1,0c0,13.5,0,26.9,0,40.3c-2,0-4.1,0-6.1,0C792.7,581.7,792.7,568.3,792.7,554.8z"/>
	<g>
		<path class="st0" d="M811.3,595.1c4.1-13.4,8.2-26.9,12.3-40.3c2.5,0,5,0,7.5,0c4.1,13.4,8.2,26.9,12.3,40.3c-2.2,0-4.3,0-6.4,0
			c-1.2-4-2.5-7.9-3.7-11.9c-4.1,0-8.2,0-12.3,0c-1.2,4-2.3,7.9-3.4,11.9C815.5,595.1,813.4,595.1,811.3,595.1z M822.1,578.7
			c3.4,0,6.9,0,10.3,0c-1.8-6.2-3.8-12.4-5.2-18.8C825.9,566.2,824,572.4,822.1,578.7z"/>
	</g>
	<path class="st0" d="M855.9,554.8c2.2,0,4.4,0,6.6,0c5.9,10.7,12.6,21,17.3,32.3c-0.9-10.8-0.6-21.5-0.6-32.3c1.9,0,3.7,0,5.6,0
		c0,13.5,0,26.9,0,40.3c-2.1,0-4.1,0-6.2,0c-6-10.9-12.6-21.5-17.5-32.9c0.6,10.9,0.4,21.9,0.5,32.9c-1.9,0-3.8,0-5.7,0
		C855.9,581.7,855.9,568.3,855.9,554.8z"/>
	<path class="st0" d="M917.7,554.8c2,0,4,0,6,0c0,13.5,0,26.9,0,40.3c-2,0-4,0-6,0C917.7,581.7,917.7,568.3,917.7,554.8z"/>
	<path class="st0" d="M939.2,554.8c2.2,0,4.4,0,6.6,0c5.9,10.7,12.5,21,17.2,32.3c-0.9-10.7-0.5-21.5-0.6-32.3c1.8,0,3.7,0,5.6,0
		c0,13.5,0,26.9,0,40.3c-2,0-4.1,0-6.1,0c-6-10.9-12.6-21.5-17.6-32.9c0.7,10.9,0.4,21.9,0.4,32.9c-1.9,0-3.7,0-5.6,0
		C939.1,581.7,939.1,568.3,939.2,554.8z"/>
	<path class="st0" d="M983.5,595c0-13.4,0-26.8,0-40.2c7,0,14,0,20.9,0c0,1.7,0,3.4,0,5.1c-4.9,0-9.9,0-14.8,0c0,4.1,0,8.2,0,12.4
		c4.6,0,9.2,0,13.8,0c0,1.7,0,3.3,0,5c-4.6,0-9.2,0-13.8,0c0,5.9,0,11.8,0,17.7C987.5,595,985.5,595,983.5,595z"/>
	<g>
		<path class="st0" d="M1063.8,555.3c6.6-0.8,14.2-2.1,20.2,1.6c6.8,4.6,5,16.3-2.7,19c6.7,3.9,5.5,12.9,8.3,19.3
			c-2.1,0-4.2,0-6.3,0c-1.8-4.7-1.8-9.9-4.1-14.4c-1.9-3.3-6.2-2.7-9.4-2.8c0,5.7,0,11.4,0,17.1c-2,0-4,0-6,0
			C1063.8,581.9,1063.8,568.6,1063.8,555.3z M1069.8,559.5c0,4.6,0,9.3,0,14c3.1-0.1,6.5,0.4,9.3-1.3c4.1-2.5,4.1-9.8-0.3-11.9
			C1076,558.8,1072.8,559.3,1069.8,559.5z"/>
	</g>
	<path class="st0" d="M1104.2,554.8c2.5,0,5.1,0,7.6,0c3.3,10.5,7,21,9.4,31.8c2.6-10.8,6.4-21.2,9.8-31.8c2.6,0,5.1,0,7.7,0
		c0.8,13.4,1.6,26.9,2.4,40.3c-2,0-3.9,0-5.9,0c-0.5-11.4-1.4-22.7-1.5-34.1c-3,11.4-7.1,22.4-10.7,33.6c-1.5,0-3.1,0-4.6,0
		c-3.3-11.2-7.2-22.2-9.7-33.5c-0.4,11.4-1.1,22.7-1.7,34.1c-1.9,0-3.8,0-5.7,0C1102.4,581.7,1103.3,568.3,1104.2,554.8z"/>
	<g>
		<path class="st0" d="M1165.4,554.8c2.5,0,5,0,7.5,0c4.1,13.4,8.2,26.9,12.3,40.3c-2.2,0-4.3,0-6.4,0c-1.2-4-2.5-7.9-3.7-11.9
			c-4.1,0-8.2,0-12.3,0c-1.2,4-2.3,7.9-3.4,11.9c-2.1,0-4.2,0-6.3,0C1157.2,581.7,1161.3,568.3,1165.4,554.8z M1169,559.8
			c-1.2,6.4-3.2,12.6-5.1,18.8c3.4,0,6.9,0,10.3,0C1172.3,572.4,1170.3,566.2,1169,559.8z"/>
	</g>
	<path class="st0" d="M1190.8,554.8c9.3,0,18.6,0,27.8,0c0,1.7,0,3.5,0,5.2c-3.6,0-7.2,0-10.8,0c0,11.7,0,23.4,0,35.1
		c-2.1,0-4.1,0-6.1,0c0-11.7,0-23.4,0-35.1c-3.6,0-7.2,0-10.8,0C1190.8,558.3,1190.8,556.5,1190.8,554.8z"/>
	<path class="st0" d="M1230.7,554.8c2,0,4.1,0,6.1,0c0,13.5,0,26.9,0,40.3c-2,0-4.1,0-6.1,0C1230.7,581.7,1230.7,568.3,1230.7,554.8
		z"/>
	<path class="st0" d="M1394.7,554.8c7,0,14,0,21,0c0,1.7,0,3.4,0,5.1c-5,0-9.9,0-14.9,0c0,3.9,0,7.7,0,11.6c4.7,0,9.4,0,14.1,0
		c0,1.7,0,3.4,0,5c-4.7,0-9.4,0-14.1,0c0,4.5,0,8.9,0,13.4c5.3,0,10.5,0,15.8,0c0,1.7,0,3.4,0,5.2c-7.3,0-14.6,0-21.9,0
		C1394.7,581.7,1394.7,568.3,1394.7,554.8z"/>
	<path class="st0" d="M1468.7,554.8c2,0,4.1,0,6.1,0c0.1,9.1-0.2,18.2,0.2,27.2c0.1,4.2,3.2,9,7.9,8.6c4.8,0.2,7.8-4.6,7.9-8.9
		c0.3-9,0-18,0.1-27c2,0,4.1,0,6.1,0c0,8.1,0,16.2,0,24.2c0,4.3-0.8,8.9-3.7,12.3c-2.2,2.7-5.6,3.8-8.9,4.7h-3.6
		c-3.1-0.8-6.4-1.8-8.5-4.4c-3-3.5-3.6-8.2-3.7-12.6C1468.7,570.9,1468.7,562.9,1468.7,554.8z"/>
	<g>
		<path class="st0" d="M1512.4,555.3c6.9-0.8,15.1-2.3,21.1,2.2c5.8,5.1,3.7,15.6-3.5,18.3c6.6,4.1,5.4,12.9,8.2,19.3
			c-2.1,0-4.2,0-6.3,0c-1.8-4.6-1.9-9.6-4-14.1c-1.8-3.6-6.2-3-9.5-3c0,5.7,0,11.4,0,17.1c-2,0-4,0-6,0
			C1512.4,581.8,1512.4,568.6,1512.4,555.3z M1518.5,559.5c0,4.6,0,9.3,0,14c3.1-0.1,6.7,0.4,9.4-1.5c3.9-2.5,3.9-9.5-0.3-11.7
			C1524.8,558.8,1521.5,559.3,1518.5,559.5z"/>
	</g>
	<path class="st0" d="M1551.1,554.8c2,0,4.1,0,6.1,0c0,13.4,0,26.9,0,40.3c-2.1,0-4.1,0-6.1,0
		C1551.1,581.7,1551.1,568.3,1551.1,554.8z"/>
	<path class="st0" d="M1569.1,554.8c9.3,0,18.5,0,27.8,0c0,1.7,0,3.5,0,5.2c-3.6,0-7.2,0-10.9,0c0,11.7,0,23.4,0,35.1c-2,0-4,0-6,0
		c0-11.7,0-23.4,0-35.1c-3.7,0-7.3,0-10.9,0C1569,558.3,1569,556.5,1569.1,554.8z"/>
	<path class="st0" d="M1607,554.8c2.3,0,4.6,0,6.9,0c2.8,6.3,5.9,12.5,8.3,19c2.6-6.4,5.6-12.7,8.5-19c2.2,0,4.4,0,6.7,0
		c-4.1,7.8-8.5,15.4-12.4,23.3c-0.4,5.7,0,11.4-0.1,17.2c-2,0-4,0-6,0c-0.1-5.7,0.2-11.3-0.1-17C1615,570.4,1610.8,562.7,1607,554.8
		z"/>
	<path class="st0" d="M1669.9,559.8c6.3-6,16.2-6.5,24.1-3.8c-0.5,1.6-0.9,3.3-1.3,5c-6.3-2.3-14.8-2.2-19.2,3.6
		c-4.1,5.7-4.1,13.8-0.9,19.9c3.1,5.8,10.7,7.1,16.6,5.4c0-3.8,0-7.7,0-11.5c-2.3,0-4.6,0-6.9,0c0-1.6,0-3.2,0-4.8
		c4.3,0,8.5,0,12.8,0c0,6.7,0,13.5,0,20.2c-5.7,1.8-11.9,3.2-17.8,1.2c-5.6-1.3-10.3-5.6-12-11.2
		C1662.7,575.7,1663.5,565.8,1669.9,559.8z"/>
	<g>
		<path class="st0" d="M1709.5,555.3c6.8-0.8,14.4-2.1,20.5,1.8c6.5,4.8,4.7,16.2-3,18.8c6.7,4,5.5,13,8.3,19.3c-2.1,0-4.2,0-6.3,0
			c-1.8-4.6-1.8-9.7-4-14.2c-1.8-3.5-6.2-2.9-9.5-2.9c0,5.7,0,11.4,0,17.1c-2,0-4,0-6,0C1709.5,581.9,1709.5,568.6,1709.5,555.3z
			 M1715.6,559.5c0,4.6,0,9.3,0,14c3.2-0.1,6.7,0.5,9.5-1.5c3.9-2.6,3.8-9.5-0.4-11.7C1721.9,558.8,1718.6,559.3,1715.6,559.5z"/>
	</g>
	<path class="st0" d="M1793.6,554.8c2,0,4.1,0,6.1,0c0,7.7,0,15.4,0,23.2c0,3.4,0.1,7.2,2.3,10c2.8,3.7,9.2,3.5,11.8-0.3
		c1.9-2.8,2-6.4,2.1-9.7c0-7.8,0-15.5,0-23.2c2,0,4.1,0,6.1,0c0,7.8,0,15.5,0,23.2c0,4.6-0.6,9.5-3.7,13.2c-2.2,2.7-5.7,3.9-9,4.8
		h-3.6c-3.3-0.8-6.8-2-8.9-4.8c-2.8-3.7-3.3-8.6-3.3-13.1C1793.6,570.3,1793.6,562.5,1793.6,554.8z"/>
	<g>
		<path class="st0" d="M1837.3,555.3c6.1-0.8,12.7-1.7,18.5,0.9c7.8,3.6,8,16.1,1,20.7c-3.9,2.7-8.9,3-13.5,2.6c0,5.2,0,10.5,0,15.7
			c-2,0-4,0-6,0C1837.3,581.8,1837.3,568.6,1837.3,555.3z M1843.3,559.6c0,5,0,10,0,15c2.8,0.1,5.8,0.5,8.4-0.9
			c4.9-2.3,5.4-10.4,0.7-13.1C1849.7,559,1846.3,559.4,1843.3,559.6z"/>
	</g>
	<path class="st0" d="M1976,554.8c2.2,0,4.4,0,6.7,0c5.8,10.7,12.5,21,17.3,32.3c-0.9-10.8-0.7-21.5-0.7-32.3c1.9,0,3.8,0,5.7,0
		c0,13.5,0,26.9,0,40.3c-2.1,0-4.1,0-6.2,0c-6-10.9-12.5-21.5-17.5-32.9c0.6,10.9,0.4,21.9,0.4,32.9c-1.9,0-3.8,0-5.7,0
		C1976,581.7,1976,568.3,1976,554.8z"/>
	<path class="st0" d="M2020.3,554.8c7,0,14,0,20.9,0c0,1.7,0,3.4,0,5.1c-4.9,0-9.9,0-14.8,0c0,4.1,0,8.2,0,12.4c4.6,0,9.2,0,13.8,0
		c0,1.7,0,3.4,0,5.1c-4.6,0-9.2,0-13.8,0c0,5.9,0,11.8,0,17.7c-2.1,0-4.1,0-6.1,0C2020.3,581.6,2020.3,568.2,2020.3,554.8z"/>
	<path class="st0" d="M2054.5,554.8c7,0,14,0,21,0c0,1.7,0,3.4,0,5.1c-5,0-9.9,0-14.9,0c0,3.9,0,7.7,0,11.6c4.7,0,9.4,0,14.1,0
		c0,1.7,0,3.4,0,5c-4.7,0-9.4,0-14.1,0c0,4.5,0,8.9,0,13.4c5.3,0,10.5,0,15.8,0c0,1.7,0,3.4,0,5.2c-7.3,0-14.6,0-21.9,0
		C2054.5,581.7,2054.5,568.3,2054.5,554.8z"/>
	<g>
		<path class="st0" d="M2089.4,555.3c6.8-0.9,14.5-2.1,20.6,1.8c6.4,4.8,4.5,15.9-2.9,18.8c2,1.3,3.8,3.1,4.5,5.5
			c1.4,4.5,2.1,9.3,3.7,13.8c-2.1,0-4.2,0-6.3,0c-1.8-4.6-1.9-9.7-4-14.2c-1.8-3.5-6.2-3-9.5-3c0,5.7,0,11.4,0,17.1c-2,0-4.1,0-6,0
			C2089.4,581.9,2089.4,568.6,2089.4,555.3z M2095.4,559.5c0,4.6,0,9.3,0,14c3.2-0.1,6.7,0.4,9.5-1.5c3.8-2.6,3.9-9.3-0.3-11.6
			C2101.8,558.8,2098.5,559.3,2095.4,559.5z"/>
	</g>
	<path class="st0" d="M2128.1,554.8c7,0,14,0,21,0c0,1.7,0,3.4,0,5.1c-5,0-10,0-14.9,0c0,3.9,0,7.7,0,11.6c4.7,0,9.4,0,14.1,0
		c0,1.7,0,3.4,0,5c-4.7,0-9.4,0-14.1,0c0,4.5,0,8.9,0,13.4c5.3,0,10.5,0,15.8,0c0,1.7,0,3.4,0,5.2c-7.3,0-14.6,0-21.9,0
		C2128.1,581.7,2128.1,568.3,2128.1,554.8z"/>
	<path class="st0" d="M2162.9,554.8c2.2,0,4.4,0,6.7,0c5.9,10.8,12.6,21.1,17.3,32.4c-1-10.8-0.6-21.6-0.7-32.4c1.9,0,3.8,0,5.7,0
		c0,13.5,0,26.9,0,40.3c-2.1,0-4.1,0-6.2,0c-6-10.9-12.6-21.4-17.5-32.9c0.6,10.9,0.4,21.9,0.4,32.9c-1.9,0-3.8,0-5.7,0
		C2162.9,581.7,2162.9,568.3,2162.9,554.8z"/>
	<path class="st0" d="M2246.4,595.1c0-13.4,0-26.9,0-40.3c7,0,14,0,21,0c0,1.7,0,3.4,0,5.1c-5,0-9.9,0-14.9,0c0,3.9,0,7.7,0,11.6
		c4.7,0,9.4,0,14.1,0c0,1.7,0,3.4,0,5.1c-4.7,0-9.4,0-14.1,0c0,4.5,0,8.9,0,13.4c5.3,0,10.5,0,15.8,0c0,1.7,0,3.4,0,5.2
		C2261.1,595.2,2253.8,595.1,2246.4,595.1z"/>
</g>
</svg>
