<?xml version="1.0" encoding="utf-8"?>
<!-- Generator: Adobe Illustrator 20.1.0, SVG Export Plug-In . SVG Version: 6.00 Build 0)  -->
<svg version="1.1" id="Layer_1" xmlns="http://www.w3.org/2000/svg" xmlns:xlink="http://www.w3.org/1999/xlink" x="0px" y="0px"
	 viewBox="0 0 2350 445.1" style="enable-background:new 0 0 2350 445.1;" xml:space="preserve">
<style type="text/css">
	.st0{fill:#3586C7;}
</style>
<g>
	<g>
		<path class="st0" d="M1919.6,0h416.1c8.3,0.3,14.8,8,14.3,16.2v411.4c-0.1,3.9-0.7,8-3.3,11.2c-2.5,3.4-6.5,5-10.3,6.3h-417.6
			c-4.2-1.3-8.5-3.2-10.8-7c-3.3-4.6-2.5-10.6-2.6-16c0-133.3,0-266.7,0-400c0.1-4.7-0.6-9.7,1.7-14C1909.4,3.3,1914.3,0.3,1919.6,0
			z M1935.2,29.9c0,128.3,0,256.6,0,384.9c128.3,0,256.6,0,384.9,0c0-128.3,0-256.6,0-384.9C2191.8,29.9,2063.5,29.9,1935.2,29.9z"
			/>
	</g>
	<path class="st0" d="M483.5,58.8c24.5-3.4,50.3-0.7,72.9,9.8c5.4,3,12.4,5.8,14.1,12.5c1.5,4.9-1.1,9.7-3.9,13.5
		c-3.1,4.2-5,9.8-10,12c-4.3,2-9.6,1.2-13.3-1.9c-14.2-9.9-32.3-12.1-49.2-10.9c-14.8,1.1-30.2,6.8-39,19.3
		c-9.5,12.9-10.8,30.5-5.7,45.4c4.2,11.8,14.1,20.3,24.6,26.6c14.8,9.2,31.5,14.1,47,21.9c17.1,8.5,33.9,19.1,45.5,34.6
		c9.9,13,15.1,29.1,16,45.3c1.5,18.5-2.5,37.6-11.9,53.7c-8.7,15.2-22.1,27.5-37.9,35.1c-20.2,9.9-43.3,12.5-65.4,10.6
		c-21.5-2.2-43.1-8.2-61.3-20.2c-3.9-2.3-7.1-6.3-7.1-11c-0.4-5,3-8.8,5.5-12.7c1.9-2.8,3.4-5.9,5.9-8.1c4.2-3.6,10.8-4,15.3-0.8
		c19.3,13.2,43.4,19.5,66.8,16.6c15.5-1.8,31.1-8.5,40.7-21.1c9.2-11.8,11.7-27.5,9.9-42c-1.1-11.4-6.2-22.3-14.6-30.1
		c-12.7-12-29.2-18.7-45.3-24.6c-22-8.7-43.7-20.6-58.6-39.4c-23.1-28.9-22.2-73.9,1.3-102.3C439.9,72.9,461.4,62.2,483.5,58.8z"/>
	<path class="st0" d="M756.9,61.2c23.4-3.6,47.5-3.2,70.7,1.4c11.4,2.3,22.8,5.4,33.5,10.3c5.9,2.6,8.9,10.3,6,16.2
		c-1.9,4.1-3.9,8.1-6,12.1c-3,5.8-10.8,8-16.5,5c-17.1-7.9-35.9-11.6-54.7-11.6c-33.2-0.7-67.7,10-91.2,34.2
		c-13.5,13.6-23.1,31-28.4,49.4c-6.1,21-7.4,43.3-4.8,64.9c3.8,30.6,16.9,61.3,41.1,81.3c20.8,17.6,48.5,25,75.4,25.1
		c18.6-0.1,37.6-1.2,55.1-7.7c0-30,0-60.1,0-90.1c-20,0-40,0-60,0c-6.5-0.1-12-6.2-11.6-12.6c0.1-4.7-0.2-9.4,0.2-14
		c0.8-5.9,6.4-10.4,12.3-10.2c27.4-0.1,54.7,0,82.1,0c3.1,0,6.3-0.2,9.2,1.2c4.3,1.9,7.2,6.4,7.2,11.1c0,43.4,0,86.7,0,130.1
		c0.2,5-3,9.9-7.7,11.7c-31.8,13.2-66.6,18.3-100.8,16.6c-32.8-1.8-65.6-12.8-90.7-34.5c-25.2-21.3-41.2-52-47.8-84
		c-8.1-39.4-5.6-81.6,11-118.6c11.9-27,31.8-50.5,57.1-65.8C715.5,71.3,736,64.4,756.9,61.2z"/>
	<path class="st0" d="M1087.2,60.1c15.7-0.9,31.4-0.2,47,2.2c13.1,2.1,26.2,5.5,38.1,11.6c4.5,2.3,6.4,8.2,4.3,12.8
		c-1.9,4.1-3.8,8.1-5.8,12.1c-2.3,4.5-8.3,6.5-12.8,4.2c-17-8.6-36.1-12.1-55-12.3c-27.6-0.5-56,6.2-78.5,22.8
		c-13.6,9.9-24.6,23.1-32.3,37.9c-9.6,18.4-14.4,39-15.8,59.6c-1.2,19.2-0.1,38.7,4.6,57.4c4.1,16.3,11.2,31.9,21.8,45
		c14.6,18.4,35.9,30.8,58.7,36c24.8,5.7,51,4.9,75.6-1.3c7.8-2,15.5-4.8,22.7-8.4c4.4-2.3,10.4-0.6,12.8,3.8c2.1,4,4.2,8,6.2,12.1
		c2.2,4.8-0.6,10.8-5.3,12.9c-20,9.7-42.3,13.4-64.3,15.2c-26.5,2.3-53.8-0.1-78.7-10.1c-27.6-10.7-51.7-30.7-66.5-56.4
		c-18.3-31.2-23.8-68.3-22.3-104c1.6-35.7,12.8-71.8,35.8-99.6c19.1-23.5,46.1-40.1,75.4-47.8C1064,62.7,1075.6,60.9,1087.2,60.1z"
		/>
	<g>
		<path class="st0" d="M1342.6,60.8c23.2-2.5,47.2-0.1,69,8.7c27.6,11,50.3,32.7,64.2,58.8c18.1,33.7,23.1,73,20.2,110.8
			c-2.6,34.3-13.3,68.8-35.1,95.7c-20.8,26.1-51.8,43.9-84.8,48.6c-36.3,5.3-75-4.2-103.2-28.1c-25.2-20.9-41.3-51.2-48.5-82.9
			c-5.5-24-6.3-48.9-3.8-73.3c3.6-34.2,15.5-68.3,38.2-94.6C1279.6,79.8,1310.4,64.1,1342.6,60.8z M1346.6,91.8
			c-14.5,1.6-28.8,6.6-41,14.7c-12.7,8.4-23.1,20.1-30.8,33.2c-9.8,16.5-15.7,35.1-18.8,54c-3.1,19.9-3.6,40.4,0.5,60.2
			c3.5,17.7,9.7,35,19,50.4c8.1,13.4,18.7,25.5,31.8,34.3c33,22.4,80.7,19.2,110.8-6.7c23.3-19.8,36.1-49.4,41.4-79.1
			c4.4-25.1,3.7-51.1-2.5-75.8c-4.2-16.8-11.1-33-21.2-47c-9.8-13.6-23-24.9-38.4-31.6C1381.5,91.7,1363.7,89.9,1346.6,91.8z"/>
	</g>
	<path class="st0" d="M2,67.9c2.2-3.7,6.5-6,10.8-5.9c5.1,0,10.2-0.2,15.2,0.2c6.2,0.7,11,6.6,10.6,12.8c0,60,0,120,0,180
		c0.2,18.9,2.4,38.1,9.8,55.6c5.4,13.1,14.4,25,26.9,32.1c15.8,9.1,35.2,10,52.7,6.2c16.4-3.6,31-14,39.7-28.3
		c12.2-19.8,15.4-43.7,15.7-66.6c0-59.7,0-119.4,0-179.1c-0.2-4.3,1.9-8.7,5.6-11c3.5-2.4,8-2,12-2c3.8,0.1,7.7-0.3,11.5,0.4
		c5.6,1.2,9.6,6.8,9.4,12.5c0,57.7,0,115.4,0,173.1c0.2,23.9-2.4,48.2-11.1,70.6c-6.4,16.7-16.5,32.3-30.2,44
		c-11.1,9.6-24.5,16.5-38.7,20.3c-21.5,5.7-44.5,6-66,0.3c-22-5.9-41.4-20.2-53.7-39.4C5.8,318.7,0.8,288.3,0,259V78.8
		C0.3,75.2-0.1,71.2,2,67.9z"/>
	<path class="st0" d="M308.4,62.7c5.8-1.4,11.8-0.4,17.7-0.7c6.5-0.3,12.6,5.4,12.5,12c0,98.7,0,197.4,0,296.1
		c0.3,6.1-4.7,11.9-10.8,12.4c-5,0.2-9.9,0-14.9,0.1c-4.5,0.2-9-2.3-11.2-6.2c-2.1-3.4-1.5-7.5-1.6-11.3c0-97,0-194,0-291.1
		C300.2,68.9,303.7,64.3,308.4,62.7z"/>
	<path class="st0" d="M1559.6,74c-0.1-5,4.3-9.5,9.3-9.5c4.7,0,9.3-0.1,14,0c3.5,0,6.5,2.3,8.3,5.2c23.9,36.1,47.8,72.2,71.7,108.3
		c28.8,43.8,58.5,87.1,86.1,131.8c-1.3-52.2-0.6-104.5-0.8-156.7c0-26,0-52,0-78.1c-0.3-5.4,4.2-10.6,9.7-10.4c5,0,10-0.1,15.1,0
		c5.1,0.3,9.2,5.3,8.9,10.3c0,98.4,0,196.8,0,295.2c0.1,4.6-3.3,9-7.9,9.8c-5,0.5-10.1,0.2-15.1,0.2c-3.7,0.2-7.3-1.6-9.2-4.8
		c-42.6-64.8-85.1-129.5-127.7-194.3c-10-14.9-19.4-30.3-29.2-45.3c0.6,49.7,0.2,99.5,0.3,149.2c0,28.3,0,56.7,0,85.1
		c0.2,5-4.1,9.7-9.1,10c-5.8,0-11.8,0.6-17.5-0.4c-4.1-1.2-7.1-5.3-6.9-9.6C1559.6,271.4,1559.6,172.7,1559.6,74z"/>
	<path class="st0" d="M2048.1,129.1c7.5,0,15,0,22.5,0c0,63.9,0,127.9,0,191.9c-10.8,0-21.5,0-32.3,0c0-45.3,0-90.6,0-135.9
		c-13.5,9.8-28.5,17.9-44.4,23.1c0-10.6,0-21.1,0-31.7c12.8-6,25.1-13.4,35.5-23.1C2037,146.5,2043.9,138.6,2048.1,129.1z"/>
	<path class="st0" d="M2148.9,143.9c14-13.2,34.6-17.1,53-13.7c15.7,2.9,30.8,11.9,38.8,26c8.8,14.8,9.4,34.6-0.3,49.1
		c-2.8,4.5-6.6,8.2-10.8,11.4c8.9,4.1,16.4,11.1,21,19.9c6.8,13.2,7.4,29.1,3.4,43.3c-5.6,18.8-21,34.1-39.4,40.5
		c-14.2,4.8-29.9,5.1-44.3,1.1c-17.6-5-32.5-18.8-38.7-36.1c-2.6-6.9-3.6-14.2-4.1-21.5c10.5-1.5,21-2.8,31.5-4.3
		c2,10.1,4.5,20.9,11.9,28.5c10.8,10.9,30.2,9.9,41.2-0.2c13.2-11.2,14.9-34,2.4-46.4c-4.7-4.8-11.1-7.7-17.7-8.4
		c-8.8-1-17.4,1.7-25.9,3.8c1.3-10.5,2.6-21,3.9-31.5c10.5,1.4,21.7,0,30.6-6c12.2-7.6,12.4-27.5,1.4-36.3
		c-10.6-8.8-28.5-7.4-37.1,3.6c-5.6,6.8-7.2,15.8-8.4,24.2c-10.8-1.9-21.5-3.8-32.2-5.8C2131.2,169.9,2137.1,154.5,2148.9,143.9z"/>
</g>
</svg>
