<svg xmlns="http://www.w3.org/2000/svg" viewBox="0 0 15 24"><path fill="#007AE3" d="M5.8 23.9c-.9-.2-1.7-.5-2.4-1C1.7 21.8.9 20.3.7 18.1c-.1-1.1.1-2 .7-3.4 0-.1-.1-.1-.7-.1H0v-1.4h2.4l.4-.4c.2-.2.8-.7 1.2-1l.8-.6H0V9.7h7L8 9c2-1.3 2.7-2.1 3.1-3.2.2-.7.2-2-.1-2.6C10.2 1.4 7.6.8 5.5 2c-1.3.9-2.6 2.9-3.2 4.7l-.2.8h-.3c-.3 0-.4 0-.4-.2 0-.1.1-1.7.3-3.7L2 .1h.4c.3 0 .4 0 .5.4.3.5.6.7 1.1.7.2 0 .8-.2 1.4-.4C6 .6 6.8.3 7.2.2c3.1-.7 6.1 1.1 6.8 4.1.2.8.2 2.3 0 3-.2.6-.5 1.3-.8 1.9-.1.2-.3.4-.3.5 0 0 .3.1.7.1h.7v1.4h-2.8l-1.5 1-1.5 1h5.8v1.4h-8l-.7.8c-1.2 1.2-1.6 2.4-1.5 3.8-.1 1 .1 1.6.9 2.4.8.8 1.3 1.1 2.4 1.1 2.8.2 5.3-2 6.6-5.4l.2-.7h.4c.2 0 .4 0 .4.1 0 .2-.9 7-.9 7.2-.1.1-.1.1-.4.1-.3 0-.4-.1-.4-.3-.1-.4-.4-.7-.9-.7-.2 0-1.1.2-1.9.4-.8.2-1.8.5-2 .5-.7.1-2 .1-2.7 0z"/></svg>