<svg xmlns="http://www.w3.org/2000/svg" viewBox="0 0 509.75 120.15"><defs><style>.cls-1{fill:#fff;}</style></defs><title>infanscube_logo</title><path class="cls-1" d="M30.57 40.54l-5.26.17v7.68l5.26-.15v-7.7zm-5.42-2.1l5.49-.3v-8l-5.49.36v7.93zm12.02-19.12l-5.36.68v7.63l5.36-.54v-7.8zm-5.29 38.96h5.12v-7.36h-5.1v7.36zm-.04 31.09l5.16.18v-7.61l-5.13-.27v7.7zm-12.84-.84l5.14.17v-7.61l-5.14-.26v7.7zm6.33.41l5.13.17v-7.6l-5.13-.27v7.7zm-6.48-60.04l5.36-.54v-7.8l-5.36.71v7.63zm11.79-8.98l-5.36.71v7.63l5.36-.54v-7.8zm-5.35 58.68l5.29.25v-7.54l-5.29-.18v7.47zm95.64-17.24h-.5v6.64h.5v.5l4.55-.08v-7.56h-4.56v.5zm-90.44-.44h-5.13v7.68h5.12v-7.68zm-.05-10h-5.1v7.36h5.1v-7.36zm94.65.31l-4.09-.13v.5h-.5v6.46h.5v.5h4.09v-.5h.5v-6.33h-.5zm-87.92-10.97l-5.26.17v7.68l5.26-.11v-7.7zm58.15 7.49l4.76.18v-.5h.5v-6.77h-.5v-.5l-4.76-.26v.5h-.5v6.85h.5zm.01 10.65h4.73v-.46h.5v-6.94h-.5v-.5l-4.73-.15v.5h-.5v7.05h.5v.5zm17.67-17.52l-4.26-.24v.5h-.5v6.63h.5v.5l4.26.16v-.5h.5v-6.56h-.5zm2.06 7.63l4.62.18v-7.45l-4.58-.24v.5h-.5v6.5h.5zm-.06 10.03h4.11v-.47h.5v-6.53h-.5v-.5l-4.11-.12v.5h-.5v6.58h.5v.5zm-21.94-8.3l-4.79-.15v.5h-.5v7.76h5.29v-.5h.5v-7.11h-.56zm.09-10.46l-4.83-.27v.5h-.5v7.45l5.3.2v-.5h.5v-6.88h-.5zm6.98 21.08h-4.92v.5h-.5v7.11h.5v.53l4.92-.09v-.5h.5v-7h-.5v-.5zm-7.13 0h-4.85v.5h-.5v7.75l5.35-.11v-.5h.5v-7.14h-.5v-.5zm13.64-20.34l-4.52-.25v.5h-.5v6.74h.5v.5l4.52.17v-.5h.5v-6.68h-.5zm-74.64 28.08h5.12v-7.68h-5.12v7.68zm-.15-30.72l5.49-.3v-8l-5.49.36v7.93zm.05 40.93l5.29.25v-7.53l-5.29-.18v7.46zm87.29-17.95h-4.19v.5h-.5v6.75h.5v.5l4.2-.08v-.53h.5v-6.64h-.5v-.5zm-80.39 28.88l5.13.17v-7.61l-5.13-.3v7.7zm-.11-62.74l5.31-.56v-7.8l-5.36.71v7.65zm54.31 44.79h-5v.5h-.5v7.71l5.5-.25v-.56h.52v-7.08h-.52v-.32zm32.43-1.23l-4.61.27v.38h-.41v6.59h.42v.51h4.58v-.71h.06v-6.51h-.06v-.53zm-6.28.27l-4.32.24v.34h-.36v6.69h.36v.69l4.32-.24v-.66h.53v-6.62h-.52zm-19.15.72h-4.8v.45h-.49v7h.46v.67l4.8-.24v-.67h.66v-7h-.63v-.21zm19.16 9.18l-4.16.27v.5h-.5v6.77h.5v.5l4.2-.33v-.5h.5v-6.7h-.5zm5.84-.36l-4.06.25v.5h-.5v6.67h.5v.5l4.06-.29v-.5h.5v-6.6h-.5zm-32 1.97l-4.82.3v.5h-.5v7.75l5.36-.42v-.5h.5v-7.13h-.54zm7.09-.43l-4.92.3v.5h-.5v7.09h.5v.5l4.92-.38v-.5h.5v-7h-.5zm37.33-66.44a7.47 7.47 0 0 0-6-5.59l-58.59-9.63a21.64 21.64 0 0 0-6.56 0l-60.73 9.34a6.14 6.14 0 0 0-5.3 5.75l-.24 88.44a8.19 8.19 0 0 0 7.26 7.45l57.8 8.56a25.56 25.56 0 0 0 8 0l57.77-9.11a7 7 0 0 0 6.62-5.34v-89.87zm-76.79 97.7a6.48 6.48 0 0 1-1.34-.14l-45.87-6.79a7.42 7.42 0 0 1-6.58-6.75l.22-79.64a5.57 5.57 0 0 1 4.81-5.23l45.78-7a8.39 8.39 0 0 1 9.44 7.09v92.15a6.52 6.52 0 0 1-6.46 6.31zm70-12.34v.06a6.38 6.38 0 0 1-6 4.85l-41.7 6.58a6.56 6.56 0 0 1-7.86-6.42v-90.62a8.56 8.56 0 0 1 9.48-7.08l40.58 6.67a6.77 6.77 0 0 1 5.49 5.07v80.88zm97.7-41.92l-.44-2.29-.77-2.12-.68-1.27-1.37-1.83-1.65-1.6-1.52-1.1-1.9-1.06-2.16-.82-.84-.23-2.07-.44-2.19-.29-2.33-.09-3 .16-2.15.36-2 .54-1.94.72-2 1-1.77 1.22-1.07.94-1.48 1.73-1.19 1.92-.59 1.32-.63 2.2-.33 2.85h10.93l.07-.41.79-2 1.41-1.51.61-.42 1.79-.72 2.13-.23 1.53.08 2 .52 1.48.89.54.54.87 1.69.31 2.16v2.4l-9.81.65-2.51.25-2.4.38-2.17.56-2 .74-1.76.89-1.55 1.05-1.27 1.18-1.33 1.72-1 2.08-.56 2.19-.18 2.41v1l.35 2.34.72 2.13.29.62 1.22 2 1.52 1.65.72.58 1.86 1.24 2.07 1 1.21.38 2.16.42 2.3.15 1.82-.12 2.17-.43 1.67-.51 2-.95 1.37-.87 1.74-1.45 1-1.2.5-.79v5.82h11.52v-30.24zm-10.63 15.51l-.09 1.24-.68 2.22-.56 1-1.52 1.73-.9.68-2.05 1-1.47.41-2.25.23h-.94l-2.4-.5-1.84-1.1-1.41-1.71-.51-2.37.51-2.37 1.53-1.88 1-.6 2-.73 2.43-.35 9.19-.68v3.73zm-66.9 16.36h12.27v-22.31h21.93v-10.38h-21.9v-14.23h24v-10.78h-36.3v57.7zm123.05-33.09l-.55-2.08-.59-1.49-1.09-2-1.34-1.79-1-.94-1.77-1.39-2-1-1.81-.58-2.18-.4-2.28-.13-2.3.12-2.22.41-2 .71-1.83 1-1.29.93-1.6 1.53-1.35 1.84-.18.35-.18-6.27h-11.56v44.27h11.9v-25.19l.1-1.7.5-2 .5-1.16 1.18-1.73.81-.81 1.76-1.08 1.25-.42 2.09-.26 2.47.3 1.71.69 1.42 1.16.23.25 1 1.67.56 1.95.22 2.45v25.88h11.9v-28.23l-.14-2.55zm132.31-11.18v25.17l-.16 1.75-.48 2-.5 1.19-1.17 1.75-.79.78-1.76 1.06-1.23.42-2.07.27h-.18l-2.19-.28-1.78-.71-1.46-1.16-.3-.32-1-1.63-.58-1.94-.22-2.45v-25.9h-11.9v28.26l.14 2.55.47 2.29.59 2.06.64 1.56 1.16 2 1.4 1.76 1 1 1.73 1.29 3.83 1.61 2.26.43 2.31.13 2.19-.12 2.21-.43 2-.71 1.83-1 1.22-.91 1.56-1.6 1.29-1.86.25-.53v6.52h11.52v-44.3h-11.9zm60.07 19.33l-.23-2.32-.36-2.2-.49-2.11-.34-1.08-.85-2.21-1-2-1.18-1.77-1.79-2-1.74-1.4-1.93-1.14-.72-.32-2-.7-2.19-.42-2.41-.17-1.78.09-2.22.37-2.06.69-1.9 1-1 .74-1.63 1.51-1.41 1.78-.4.72v-22.53h-11.9v60.41h11.72v-6.28l1.2 1.73 1.55 1.61 1.83 1.33 1.56.83 2 .74 2.19.42 2.32.15h.85l2.28-.31 2.12-.52 2-.8 2.22-1.37 1.71-1.47 1.49-1.72.6-.83 1.07-1.86.94-2.1.8-2.33.53-2.31.32-2.25.2-2.35.07-2.46zm-11.29 6l-.46 2.25-.79 2.21-1.11 1.94-1.3 1.49-1.86 1.3-1.79.69-2.25.27-2-.23-2.07-.8-1.54-1-1.57-1.72-1.09-1.84-.85-2.29-.21-.74-.36-2.25-.14-2.44v-.92l.2-2.33.47-2.18.86-2.25 1.13-1.92 1.34-1.53 1.86-1.33 1.74-.67 2.22-.27 2 .23 2.08.76 1.53 1 1.6 1.73 1.07 1.84.83 2.29.21.76.31 2.28.12 3.36zm54.81-.02v-4.06l-.09-2.41-.27-2.35-.39-2.23-.6-2.09-.43-1.18-1-2.11-1.16-1.88-1.4-1.77-.74-.74-1.67-1.45-1.87-1.23-2-1-1.6-.58-2.09-.54-2.19-.31-2.32-.11-2.06.09-2.22.29-2.11.52-2 .72-1.15.57-1.94 1.15-1.75 1.4-1.56 1.59-.93 1.14-1.21 1.86-1 2.06-1 2.2-.67 2.48-.33 2.22-.24 2.33-.09 2.42.11 2.86.22 2.32.45 2.21.6 2.07.54 1.44 1 2.11 1.2 1.94 1.38 1.69.83.87 1.71 1.44 1.92 1.23 2.06 1 2 .69 2.09.49 2.22.26 2.32.11 2.9-.18 2.17-.34 2.06-.54 2-.72 2-1 1.81-1.21 1.25-1 1.49-1.68 1.3-1.86.77-1.44.81-2.15.61-2.84h-11l-.34.94-1.07 1.73-1.54 1.34-1 .55-2 .62-2.09.21-1.87-.15-1.85-.54-1.33-.7-1.56-1.33-.84-1.14-1-1.95-.51-1.88-.09-2.29v-.2h28.36zm-29.32-7.13l.29-2.27.7-2.19.58-1.23 1.38-1.86.94-.86 2.09-1.28 1.35-.44 2.23-.25 1.49.11 2.2.6 1.12.58 1.78 1.45.74.95 1.11 2.1.5 1.64.37 2.94h-18.86zm-165.04 7.91l-.68-1.49-1.39-1.87-1.75-1.45-2-1.16-1.06-.45-2-.71-2.29-.62-7.68-1.76-1.87-.58-1.89-1-1-1.15-.44-1.36.34-1.53 1.27-1.44.42-.26 1.8-.66 2.18-.23 1.15.12 2.05.47 1.6.88 1.34 1.65.62 2.45h11l-.13-2-.46-2.29-.79-2.06-.61-1.12-1.35-1.84-1.67-1.57-1.39-1-1.94-1.06-2.15-.82-2.6-.63-2.19-.29-2.31-.09-3.06.16-2.17.32-2 .5-1.8.66-2 1-1.78 1.2-.9.79-1.52 1.71-1.2 1.98-.51 1.17-.58 2.21-.2 2.4.2 2.22.53 2.14 1 2.09 1.38 1.77.9.85 1.64 1.22 1.91 1 2.15.85 2.41.68 7.57 1.82 2.28.74 1.52.84.41.45.54 1.84-.34 1.51-1.3 1.42-.69.39-1.85.56-2.25.21-1.54-.1-2-.47-1.61-.81-.43-.33-1.17-1.54-.76-2.43h-11.57l.27 2.09.57 2.26.88 2.07.71 1.19 1.42 1.79 1.71 1.52 1.59 1.11 2 1 2.21.8.84.23 2.07.44 2.21.27 2.33.09h1.1l2.25-.18 2.11-.38 2.06-.52 2.09-.75 2-1 1.77-1.19 1.1-.94 1.52-1.69 1.18-1.91.57-1.32.61-2.24.17-2.37-.14-2.27zm46.14-2.08l-.62 2.39-.83 1.93-1.2 1.77-1.44 1.51-1.69 1.2-1.92.89-2.32.57-2.15.15-1.74-.1-2-.43-1.87-.78-1.24-.72-1.6-1.33-1.41-1.7-1.08-1.73-.9-2-.74-2.24-.32-1.25-.37-2.11-.24-2.26-.07-2.43v-1.44l.22-2.26.81-4.29.71-2.16.91-2 1.07-1.7.93-1.17 1.57-1.48 1.71-1.14 1.44-.61 2-.51 2.17-.17h.38l2.08.22 2 .58 1.94 1 1.69 1.24 1.48 1.62 1.11 1.8 1 2.42.59 2.64h11.94l-.33-2.94-.47-2.26-.73-2.16-.83-2.08-.9-1.68-1.27-1.83-1.46-1.79-1.54-1.58-1.6-1.3-1.85-1.2-2-1.07-2.09-.89-2.6-.78-2.12-.45-2.2-.24-2.31-.09-2.33.09-2.22.25-2.14.4-2.05.58-2 .73-1.18.52-2 1.1-1.75 1.23-1.67 1.43-1.56 1.61-1 1.28-1.33 1.84-1.11 2-1 2.11-.84 2.24-.31 1-.53 2.11-.42 2.19-.31 2.28-.18 2.39v3.74l.13 2.4.25 2.38.38 2.23.47 2.13.6 2.06.6 1.69.94 2.16 1.08 2 1.25 1.84 1.34 1.69.88.95 1.64 1.52 1.77 1.34 1.9 1.16 2 1 2.07.75 2.06.58 2.14.4 2.2.2 2.29.07 3-.13 2.21-.29 2.09-.45 2-.6 1.81-.72 2-1 1.86-1.19 1.74-1.39 1.15-1.08 1.48-1.68 1.29-1.85 1.14-2 .87-1.95.71-2.15.51-2.29.44-2.92h-12z"/></svg>