<svg xmlns="http://www.w3.org/2000/svg" viewBox="0 0 160 46" enable-background="new 0 0 160 46"><path fill="#A4B5C6" d="M24.3 0c-3.7 0-6.7 2.9-6.7 6.4s3 6.4 6.7 6.4 6.7-2.9 6.7-6.4-2.9-6.4-6.7-6.4zm0 16.4c-3.7 0-6.7 2.9-6.7 6.4 0 3.6 3 6.4 6.7 6.4s6.7-2.9 6.7-6.4c.1-3.5-2.9-6.4-6.7-6.4zm0 16.7c-3.7 0-6.7 2.9-6.7 6.4 0 3.6 3 6.4 6.7 6.4s6.7-2.9 6.7-6.4c.1-3.5-2.9-6.4-6.7-6.4zm-24.3-10.3c0 3.6 3 6.4 6.7 6.4s6.7-2.9 6.7-6.4c0-3.6-3-6.4-6.7-6.4s-6.7 2.9-6.7 6.4zm41.2 6.5c3.7 0 6.7-2.9 6.7-6.4 0-3.6-3-6.4-6.7-6.4s-6.7 2.9-6.7 6.4c0 3.5 3 6.4 6.7 6.4zm0-16.4c3.7 0 6.7-2.9 6.7-6.4 0-3.6-3-6.4-6.7-6.4s-6.7 2.9-6.7 6.4c0 3.5 3 6.4 6.7 6.4zm-34.5 20.2c-3.7 0-6.7 2.9-6.7 6.5 0 3.5 3 6.4 6.7 6.4s6.7-2.9 6.7-6.4c.1-3.6-2.9-6.5-6.7-6.5zm34.5 0c-3.7 0-6.7 2.9-6.7 6.4 0 3.6 3 6.4 6.7 6.4s6.7-2.9 6.7-6.4c.1-3.5-3-6.4-6.7-6.4zm-34.5-20.2c3.7 0 6.7-2.9 6.7-6.4s-2.9-6.5-6.7-6.5c-3.7 0-6.7 2.9-6.7 6.4s3 6.5 6.7 6.5zm76.6 7.8h-1.4c-1.1 0-1.7.5-1.7 1.6v16.3c0 1.6-1 2.7-3 3.2-1 .3-2.6.4-4.9.4h-6.4c-2.2 0-3.8-.1-4.9-.4-2-.5-3-1.6-3-3.2v-16.3c0-1.1-.6-1.6-1.7-1.6h-1.3c-1.1 0-1.6.5-1.6 1.6v16.6c0 1.5.2 2.7.7 3.6 1.4 2.4 5.3 3.6 11.8 3.6h6.6c8.3 0 12.5-2.4 12.5-7.1v-16.7c-.1-1.1-.6-1.6-1.7-1.6zm8.1 0h-1.4c-1.1 0-1.6.5-1.6 1.6v22.1c0 1.1.5 1.6 1.6 1.6h1.4c1.1 0 1.7-.5 1.7-1.6v-22.1c-.1-1.1-.6-1.6-1.7-1.6zm29.8 11.7c-1.9-.8-4.3-1.1-7.1-1.1h-6.3c-2 0-3.3-.1-4.1-.2-1.9-.3-2.9-1-2.9-2.2v-1.8c0-1.8 2.2-2.6 6.6-2.6h2.4c1.1 0 1.7-.5 1.7-1.6v-.5c0-1.1-.6-1.6-1.7-1.6h-2.4c-3.3 0-5.8.3-7.4.9-2.6 1-3.9 2.8-3.9 5.5v1.8c0 4 3.9 6 11.7 6h6.2c4.3 0 6.5.8 6.5 2.5v2.2c0 1.6-2.2 2.4-6.5 2.4h-16.1c-1.1 0-1.6.5-1.6 1.6v.5c0 1.1.5 1.6 1.6 1.6h16.2c3.1 0 5.6-.3 7.3-.8 2.6-.8 3.9-2.6 3.9-5.4v-2.3c0-2.2-1.4-3.9-4.1-4.9zm37.2-.8h-1.4c-1.1 0-1.7.5-1.7 1.6v6.6c0 .8-.7 1.4-2.2 1.9-1.1.4-2.2.6-3.2.6h-10.5c-4.2 0-6.3-.9-6.3-2.6v-12.7c0-1.7 2.2-2.5 6.5-2.5h4c1.1 0 1.6-.5 1.6-1.6v-.5c0-1.1-.5-1.6-1.6-1.6h-4.2c-2.7 0-5 .4-6.9 1.2-2.7 1.1-4 2.8-4 5.1v12.7c0 2.4 1.3 4.1 3.9 5.2 1.9.8 4.2 1.2 7 1.2h10.6c2.6 0 4.8-.4 6.6-1.3 2.3-1.1 3.5-2.9 3.5-5.2v-6.4c-.1-1.2-.6-1.7-1.7-1.7z"/></svg>