<?xml version="1.0" encoding="utf-8"?>
<!-- Generator: Adobe Illustrator 19.2.0, SVG Export Plug-In . SVG Version: 6.00 Build 0)  -->
<svg version="1.1" id="Слой_1" xmlns="http://www.w3.org/2000/svg" xmlns:xlink="http://www.w3.org/1999/xlink" x="0px" y="0px"
	 viewBox="0 0 89.7 25.7" style="enable-background:new 0 0 89.7 25.7;" xml:space="preserve">
<style type="text/css">
	.st0{fill:#007ae3;}
</style>
<path class="st0" d="M82.8,13.9c-0.6,0-1.2-0.2-1.6-0.6c-0.4-0.4-0.7-0.9-0.7-1.5l0-0.2l1.2-0.2l0,0.2c0.1,0.4,0.2,0.7,0.4,0.9
	c0.2,0.2,0.4,0.3,0.7,0.3c0.3,0,0.6-0.1,0.8-0.3c0.2-0.2,0.3-0.5,0.3-0.9c0-0.3-0.1-0.6-0.3-0.8c-0.2-0.2-0.5-0.3-0.8-0.3
	c-0.1,0-0.3,0-0.5,0.1l-0.3,0.1l0.1-1.2l0.2,0c0,0,0.1,0,0.1,0c0.3,0,0.6-0.1,0.8-0.2c0.2-0.1,0.3-0.4,0.3-0.7
	c0-0.3-0.1-0.5-0.3-0.6c-0.2-0.2-0.4-0.2-0.7-0.2c-0.3,0-0.5,0.1-0.7,0.3c-0.2,0.2-0.3,0.4-0.4,0.8l0,0.2l-1.2-0.2l0-0.2
	c0.1-0.6,0.4-1.1,0.7-1.4c0.4-0.3,0.9-0.5,1.4-0.5c0.4,0,0.8,0.1,1.1,0.3c0.3,0.2,0.6,0.4,0.8,0.7c0.2,0.3,0.3,0.6,0.3,1
	c0,0.3-0.1,0.6-0.3,0.9c-0.1,0.2-0.2,0.3-0.4,0.4c0.3,0.1,0.5,0.3,0.6,0.5c0.2,0.3,0.4,0.7,0.4,1.2c0,0.6-0.2,1.2-0.7,1.6
	C84.1,13.6,83.5,13.9,82.8,13.9z M78.4,13.7h-1.2v-5c-0.1,0.1-0.3,0.2-0.5,0.3c-0.3,0.2-0.6,0.3-0.9,0.4l-0.2,0.1V8.4l0.1,0
	c0.4-0.2,0.8-0.5,1.2-0.8c0.3-0.3,0.6-0.6,0.7-0.8l0-0.1h0.8V13.7z M88.1,18.3H72.8c-0.3,0-0.5-0.2-0.5-0.5V2.5
	c0-0.3,0.2-0.5,0.5-0.5h15.3c0.3,0,0.5,0.2,0.5,0.5v15.3C88.7,18.1,88.4,18.3,88.1,18.3z M73.4,17.2h14.2V3H73.4V17.2z M67.4,15.9
	h-0.5c-0.1,0-0.2-0.1-0.3-0.2l-4.7-7.2c-0.4-0.6-0.7-1.1-1.1-1.7c0,0.6,0,1.5,0,2.8v5.9c0,0.2-0.2,0.4-0.4,0.4h-0.5
	c-0.2,0-0.4-0.2-0.4-0.4V4.7c0-0.2,0.2-0.4,0.4-0.4h0.5c0.1,0,0.2,0.1,0.3,0.2l4.6,7c0.5,0.7,0.9,1.3,1.2,1.9c0-0.9,0-1.8,0-2.9V4.7
	c0-0.2,0.2-0.4,0.4-0.4h0.5c0.2,0,0.4,0.2,0.4,0.4v10.9C67.7,15.8,67.6,15.9,67.4,15.9z M52,16.1c-3,0-5.1-2.4-5.1-5.9
	c0-3.7,2.1-6.1,5.2-6.1c3,0,5,2.4,5,5.9C57.2,14.2,54.5,16.1,52,16.1z M52.1,5.3c-2.7,0-3.9,2.5-3.9,4.9c0,2,1.2,4.8,3.8,4.8
	c2.7,0,3.9-2.5,3.9-4.9C55.9,7.7,54.8,5.3,52.1,5.3z M45.3,15.5c0.1,0,0.2-0.1,0.2-0.2c0-0.1,0-0.2,0-0.3l-0.2-0.4
	c-0.1-0.2-0.3-0.2-0.5-0.2c-0.6,0.3-1.5,0.5-2.4,0.5c-2.8,0-4.4-1.8-4.4-4.7c0-3.1,1.8-5,4.6-5c0.8,0,1.5,0.2,2.1,0.5
	c0.1,0,0.2,0.1,0.3,0s0.2-0.1,0.2-0.2l0.2-0.4c0.1-0.2,0-0.4-0.2-0.5c-0.7-0.3-1.6-0.5-2.7-0.5c-3.5,0-5.8,2.4-5.8,6
	c0,4.4,2.9,5.9,5.4,5.9C43.4,16.1,44.6,15.9,45.3,15.5z M34,15.5c0.2-0.1,0.3-0.2,0.3-0.4v-4.8c0-0.3-0.2-0.5-0.5-0.5h-3.2
	c-0.3,0-0.5,0.2-0.5,0.5v0.4c0,0.2,0.2,0.5,0.5,0.5h2.2v3.3c-0.5,0.2-1.2,0.3-2,0.3c-3.2,0-4.4-2.5-4.4-4.7c0-2.9,1.8-4.7,4.6-4.7
	c1,0,1.6,0.2,2.1,0.4c0.2,0.1,0.5,0,0.6-0.2L34,5.2C34,5.1,34,5,34,4.9c0-0.1-0.1-0.2-0.2-0.3c-0.5-0.2-1.5-0.5-2.6-0.5
	c-4.2,0-6.1,3-6.1,6.1c0,3.6,2.2,6,5.7,6C32.2,16.1,33.3,15.8,34,15.5z M23.5,12.8c0-1.9-1.2-2.8-3-3.6c-1.7-0.7-2-1.3-2-2.2
	c0-0.2,0.1-1.7,2.1-1.7c1,0,1.5,0.4,1.5,0.4c0.1,0.1,0.2,0.1,0.4,0.1c0.1,0,0.2-0.1,0.3-0.2L23,5.3c0.1-0.2,0.1-0.5-0.1-0.6
	C22.4,4.3,21.6,4,20.5,4c-2,0-3.5,1.3-3.5,3.1c0,1.6,1,2.7,3.1,3.4c1.6,0.6,1.9,1.3,1.9,2.3c0,1.2-0.9,2-2.3,2
	c-0.9,0-1.6-0.3-2.1-0.6c-0.1-0.1-0.2-0.1-0.3-0.1c-0.1,0-0.2,0.1-0.3,0.2l-0.3,0.4c-0.1,0.2-0.1,0.5,0.1,0.6
	c0.7,0.5,1.8,0.8,2.8,0.8C22.3,16.2,23.5,14.4,23.5,12.8z M14.5,15.6V4.7c0-0.2-0.2-0.5-0.5-0.5h-0.5c-0.3,0-0.5,0.2-0.5,0.5v10.9
	c0,0.3,0.2,0.5,0.5,0.5H14C14.3,16,14.5,15.8,14.5,15.6z M10.2,11.2V4.7c0-0.2-0.2-0.5-0.5-0.5H9.2c-0.3,0-0.5,0.2-0.5,0.5v6.6
	c0,2.3-1,3.6-2.8,3.6c-1.7,0-2.6-1.3-2.6-3.6V4.7c0-0.2-0.2-0.5-0.5-0.5H2.4C2.2,4.2,2,4.4,2,4.7v6.7c0,3,1.5,4.8,4,4.8
	C8.6,16.2,10.2,14.3,10.2,11.2z M3.5,22.4H3.1v1.3H2.9v-1.3H2.5v-0.2h1.1V22.4z M5.1,23.7H4.9V23H4.2v0.7H4v-1.5h0.2v0.6h0.6v-0.6
	h0.2V23.7z M6.5,23.7H5.7v-1.5h0.8v0.2H5.9v0.4h0.5V23H5.9v0.5h0.6V23.7z M8.6,22.4H8.2v1.3H8v-1.3H7.6v-0.2h1.1V22.4z M10.2,23.7
	H10V23H9.3v0.7H9.1v-1.5h0.2v0.6H10v-0.6h0.2V23.7z M10.8,22.2H11v1.5h-0.2V22.2z M12.3,23c0.1,0,0.2,0.2,0.2,0.3
	c0,0.2,0.1,0.4,0.1,0.4h-0.2c0,0-0.1-0.2-0.1-0.4c0-0.2-0.1-0.3-0.3-0.3h-0.1v0.7h-0.2v-1.5c0.1,0,0.2,0,0.4,0c0.2,0,0.3,0,0.4,0.1
	c0.1,0.1,0.1,0.2,0.1,0.3C12.6,22.8,12.4,22.9,12.3,23L12.3,23z M12,22.9c0.2,0,0.3-0.1,0.3-0.3c0-0.2-0.1-0.3-0.3-0.3
	c-0.1,0-0.1,0-0.2,0v0.5H12z M14,22.4h-0.4v1.3h-0.2v-1.3H13v-0.2H14L14,22.4L14,22.4z M15.3,23.7h-0.8v-1.5h0.8v0.2h-0.6v0.4h0.5
	V23h-0.5v0.5h0.6C15.3,23.5,15.3,23.7,15.3,23.7z M16.7,23.7h-0.8v-1.5h0.8v0.2h-0.6v0.4h0.5V23h-0.5v0.5h0.6V23.7z M18.3,23.7H18
	L17.6,23c-0.1-0.2-0.2-0.3-0.3-0.5l0,0c0,0.2,0,0.4,0,0.7v0.6h-0.2v-1.5h0.3l0.4,0.7c0.1,0.2,0.2,0.3,0.2,0.5l0,0c0-0.2,0-0.4,0-0.7
	v-0.6h0.2V23.7z M19.8,22.4h-0.4v1.3h-0.2v-1.3h-0.4v-0.2h1.1L19.8,22.4L19.8,22.4z M21.4,23.7h-0.2V23h-0.6v0.7h-0.2v-1.5h0.2v0.6
	h0.6v-0.6h0.2V23.7z M23.7,23.1c0,0.5-0.2,0.7-0.6,0.7c-0.3,0-0.5-0.2-0.5-0.6v-0.9h0.2v0.9c0,0.3,0.1,0.4,0.3,0.4
	c0.2,0,0.3-0.1,0.3-0.4v-0.9h0.2L23.7,23.1L23.7,23.1z M25.4,23.7h-0.3L24.7,23l-0.1,0.2v0.6h-0.2v-1.5h0.2v0.7h0
	c0-0.1,0.1-0.1,0.1-0.2l0.4-0.6h0.3l-0.5,0.7L25.4,23.7z M26.5,23c0.1,0,0.2,0.2,0.2,0.3c0,0.2,0.1,0.4,0.1,0.4h-0.2
	c0,0-0.1-0.2-0.1-0.4c0-0.2-0.1-0.3-0.3-0.3h-0.1v0.7h-0.2v-1.5c0.1,0,0.2,0,0.4,0c0.2,0,0.3,0,0.4,0.1c0.1,0.1,0.1,0.2,0.1,0.3
	C26.8,22.8,26.6,22.9,26.5,23L26.5,23z M26.2,22.9c0.2,0,0.3-0.1,0.3-0.3c0-0.2-0.1-0.3-0.3-0.3c-0.1,0-0.1,0-0.2,0v0.5H26.2z
	 M28.5,23.7h-0.2l-0.1-0.5h-0.5l-0.1,0.5h-0.2l0.5-1.5H28L28.5,23.7z M28,23.1l-0.1-0.4c0-0.1-0.1-0.2-0.1-0.3h0
	c0,0.1,0,0.2-0.1,0.3l-0.1,0.4H28z M29,22.2h0.2v1.5H29V22.2z M30.9,23.7h-0.2L30.2,23c-0.1-0.2-0.2-0.3-0.3-0.5l0,0
	c0,0.2,0,0.4,0,0.7v0.6h-0.2v-1.5H30l0.4,0.7c0.1,0.2,0.2,0.3,0.3,0.5l0,0c0-0.2,0-0.4,0-0.7v-0.6h0.2
	C30.9,22.2,30.9,23.7,30.9,23.7z M31.5,22.2h0.2v1.5h-0.2V22.2z M33.4,23.7h-0.2L33,23.3h-0.5l-0.1,0.5h-0.2l0.5-1.5H33L33.4,23.7z
	 M33,23.1l-0.1-0.4c0-0.1-0.1-0.2-0.1-0.3h0c0,0.1,0,0.2-0.1,0.3l-0.1,0.4L33,23.1L33,23.1z M35,23.7h-0.2L34.4,23
	c-0.1-0.2-0.2-0.3-0.3-0.5l0,0c0,0.2,0,0.4,0,0.7v0.6h-0.2v-1.5h0.3l0.4,0.7c0.1,0.2,0.2,0.3,0.3,0.5l0,0c0-0.2,0-0.4,0-0.7v-0.6H35
	C35,22.2,35,23.7,35,23.7z M36.3,22.2h0.2v1.5h-0.2V22.2z M38.2,23.7H38L37.6,23c-0.1-0.2-0.2-0.3-0.3-0.5l0,0c0,0.2,0,0.4,0,0.7
	v0.6h-0.2v-1.5h0.3l0.4,0.7c0.1,0.2,0.2,0.3,0.2,0.5l0,0c0-0.2,0-0.4,0-0.7v-0.6h0.2C38.2,22.2,38.2,23.7,38.2,23.7z M38.8,23.7
	v-1.5h0.8v0.2h-0.6v0.5h0.5V23h-0.5v0.7L38.8,23.7L38.8,23.7z M41.4,22.9c0,0.5-0.3,0.8-0.7,0.8c-0.4,0-0.6-0.3-0.6-0.8
	c0-0.5,0.3-0.8,0.7-0.8C41.1,22.1,41.4,22.5,41.4,22.9z M40.3,22.9c0,0.3,0.1,0.6,0.4,0.6c0.3,0,0.4-0.3,0.4-0.6
	c0-0.3-0.1-0.6-0.4-0.6C40.4,22.3,40.3,22.6,40.3,22.9z M42.6,23c0.1,0,0.2,0.2,0.2,0.3c0,0.2,0.1,0.4,0.1,0.4h-0.2
	c0,0-0.1-0.2-0.1-0.4c0-0.2-0.1-0.3-0.3-0.3h-0.1v0.7h-0.2v-1.5c0.1,0,0.2,0,0.4,0c0.2,0,0.3,0,0.4,0.1c0.1,0.1,0.1,0.2,0.1,0.3
	C42.8,22.8,42.7,22.9,42.6,23L42.6,23z M42.3,22.9c0.2,0,0.3-0.1,0.3-0.3c0-0.2-0.1-0.3-0.3-0.3c-0.1,0-0.1,0-0.2,0v0.5H42.3z
	 M44.9,23.7h-0.2l0-0.7c0-0.2,0-0.4,0-0.6h0c0,0.2-0.1,0.4-0.2,0.6l-0.2,0.7H44L43.8,23c-0.1-0.2-0.1-0.4-0.2-0.6h0
	c0,0.2,0,0.4,0,0.7l0,0.6h-0.2l0.1-1.5h0.3l0.2,0.7c0.1,0.2,0.1,0.4,0.1,0.5h0c0-0.2,0.1-0.3,0.1-0.5l0.2-0.7h0.3L44.9,23.7z
	 M46.6,23.7h-0.2l-0.1-0.5h-0.5l-0.1,0.5h-0.2l0.5-1.5h0.3L46.6,23.7z M46.1,23.1L46,22.7c0-0.1-0.1-0.2-0.1-0.3h0
	c0,0.1,0,0.2-0.1,0.3l-0.1,0.4L46.1,23.1L46.1,23.1z M47.9,22.4h-0.4v1.3h-0.2v-1.3h-0.4v-0.2h1.1L47.9,22.4L47.9,22.4z M48.3,22.2
	h0.2v1.5h-0.2V22.2z M50.4,22.9c0,0.5-0.3,0.8-0.7,0.8c-0.4,0-0.6-0.3-0.6-0.8c0-0.5,0.3-0.8,0.7-0.8C50.2,22.1,50.4,22.5,50.4,22.9
	z M49.3,22.9c0,0.3,0.1,0.6,0.4,0.6c0.3,0,0.4-0.3,0.4-0.6c0-0.3-0.1-0.6-0.4-0.6C49.5,22.3,49.3,22.6,49.3,22.9z M52,23.7h-0.2
	L51.4,23c-0.1-0.2-0.2-0.3-0.3-0.5l0,0c0,0.2,0,0.4,0,0.7v0.6h-0.2v-1.5h0.3l0.4,0.7c0.1,0.2,0.2,0.3,0.3,0.5l0,0c0-0.2,0-0.4,0-0.7
	v-0.6H52C52,22.2,52,23.7,52,23.7z M54,22.4c-0.1,0-0.1-0.1-0.3-0.1c-0.2,0-0.3,0.1-0.3,0.2c0,0.1,0.1,0.2,0.3,0.3
	c0.2,0.1,0.4,0.2,0.4,0.5c0,0.3-0.2,0.5-0.5,0.5c-0.1,0-0.3,0-0.4-0.1l0.1-0.2c0.1,0.1,0.2,0.1,0.3,0.1c0.2,0,0.3-0.1,0.3-0.2
	c0-0.1-0.1-0.2-0.3-0.3c-0.2-0.1-0.4-0.2-0.4-0.4c0-0.2,0.2-0.4,0.5-0.4c0.1,0,0.3,0,0.3,0.1L54,22.4z M55.5,23.7h-0.8v-1.5h0.8v0.2
	h-0.6v0.4h0.5V23h-0.5v0.5h0.6V23.7z M57,23.7c-0.1,0-0.2,0.1-0.4,0.1c-0.4,0-0.7-0.3-0.7-0.8c0-0.5,0.3-0.8,0.8-0.8
	c0.2,0,0.3,0,0.3,0.1l-0.1,0.2c-0.1,0-0.2-0.1-0.3-0.1c-0.3,0-0.5,0.2-0.5,0.6c0,0.4,0.2,0.6,0.5,0.6c0.1,0,0.2,0,0.3-0.1L57,23.7z
	 M58.6,23.1c0,0.5-0.2,0.7-0.6,0.7c-0.3,0-0.5-0.2-0.5-0.6v-0.9h0.2v0.9c0,0.3,0.1,0.4,0.3,0.4c0.2,0,0.3-0.1,0.3-0.4v-0.9h0.2
	L58.6,23.1L58.6,23.1z M59.8,23c0.1,0,0.2,0.2,0.2,0.3c0,0.2,0.1,0.4,0.1,0.4h-0.2c0,0-0.1-0.2-0.1-0.4c0-0.2-0.1-0.3-0.3-0.3h-0.1
	v0.7h-0.2v-1.5c0.1,0,0.2,0,0.4,0c0.2,0,0.3,0,0.4,0.1c0.1,0.1,0.1,0.2,0.1,0.3C60.1,22.8,60,22.9,59.8,23L59.8,23z M59.5,22.9
	c0.2,0,0.3-0.1,0.3-0.3c0-0.2-0.1-0.3-0.3-0.3c-0.1,0-0.1,0-0.2,0v0.5H59.5z M60.6,22.2h0.2v1.5h-0.2V22.2z M62.4,22.4H62v1.3h-0.2
	v-1.3h-0.4v-0.2h1.1L62.4,22.4L62.4,22.4z M64,22.2l-0.5,0.9v0.7h-0.2v-0.6l-0.5-0.9H63l0.2,0.4c0,0.1,0.1,0.2,0.1,0.3h0
	c0-0.1,0.1-0.2,0.1-0.3l0.2-0.4H64z M66.2,23.6c-0.1,0-0.3,0.1-0.4,0.1c-0.7,0-0.8-0.5-0.8-0.8c0-0.5,0.3-0.8,0.8-0.8
	c0.2,0,0.3,0,0.4,0.1l-0.1,0.2c-0.1,0-0.2-0.1-0.3-0.1c-0.3,0-0.5,0.2-0.5,0.6c0,0.4,0.2,0.6,0.5,0.6c0.1,0,0.2,0,0.2,0v-0.4h-0.3
	v-0.2h0.5V23.6z M67.4,23c0.1,0,0.2,0.2,0.2,0.3c0,0.2,0.1,0.4,0.1,0.4h-0.2c0,0-0.1-0.2-0.1-0.4c0-0.2-0.1-0.3-0.3-0.3H67v0.7h-0.2
	v-1.5c0.1,0,0.2,0,0.4,0c0.2,0,0.3,0,0.4,0.1c0.1,0.1,0.1,0.2,0.1,0.3C67.7,22.8,67.5,22.9,67.4,23L67.4,23z M67.1,22.9
	c0.2,0,0.3-0.1,0.3-0.3c0-0.2-0.1-0.3-0.3-0.3c-0.1,0-0.1,0-0.2,0v0.5H67.1z M69.4,22.9c0,0.5-0.3,0.8-0.7,0.8
	c-0.4,0-0.6-0.3-0.6-0.8c0-0.5,0.3-0.8,0.7-0.8C69.2,22.1,69.4,22.5,69.4,22.9z M68.4,22.9c0,0.3,0.1,0.6,0.4,0.6
	c0.3,0,0.4-0.3,0.4-0.6c0-0.3-0.1-0.6-0.4-0.6C68.5,22.3,68.4,22.6,68.4,22.9z M71,23.1c0,0.5-0.2,0.7-0.6,0.7
	c-0.3,0-0.5-0.2-0.5-0.6v-0.9h0.2v0.9c0,0.3,0.1,0.4,0.3,0.4c0.2,0,0.3-0.1,0.3-0.4v-0.9H71V23.1z M71.6,22.2c0.1,0,0.2,0,0.4,0
	c0.2,0,0.3,0,0.4,0.1c0.1,0.1,0.1,0.2,0.1,0.3c0,0.4-0.3,0.5-0.6,0.5c0,0-0.1,0-0.1,0v0.6h-0.2L71.6,22.2L71.6,22.2z M71.9,22.9
	c0,0,0.1,0,0.1,0c0.2,0,0.3-0.1,0.3-0.3c0-0.2-0.1-0.3-0.3-0.3c-0.1,0-0.1,0-0.2,0V22.9z M74.8,23.7c-0.1,0-0.2,0.1-0.4,0.1
	c-0.4,0-0.7-0.3-0.7-0.8c0-0.5,0.3-0.8,0.8-0.8c0.2,0,0.3,0,0.3,0.1l-0.1,0.2c-0.1,0-0.2-0.1-0.3-0.1c-0.3,0-0.5,0.2-0.5,0.6
	c0,0.4,0.2,0.6,0.5,0.6c0.1,0,0.2,0,0.3-0.1L74.8,23.7z M76.4,22.9c0,0.5-0.3,0.8-0.7,0.8c-0.4,0-0.6-0.3-0.6-0.8
	c0-0.5,0.3-0.8,0.7-0.8C76.2,22.1,76.4,22.5,76.4,22.9z M75.4,22.9c0,0.3,0.1,0.6,0.4,0.6c0.3,0,0.4-0.3,0.4-0.6
	c0-0.3-0.1-0.6-0.4-0.6C75.5,22.3,75.4,22.6,75.4,22.9z M78.1,23.7h-0.2L77.4,23c-0.1-0.2-0.2-0.3-0.3-0.5l0,0c0,0.2,0,0.4,0,0.7
	v0.6H77v-1.5h0.3l0.4,0.7c0.1,0.2,0.2,0.3,0.3,0.5l0,0c0-0.2,0-0.4,0-0.7v-0.6h0.2C78.1,22.2,78.1,23.7,78.1,23.7z M78.7,23.7v-1.5
	h0.8v0.2h-0.6v0.5h0.5V23h-0.5v0.7L78.7,23.7L78.7,23.7z M80.8,23.7H80v-1.5h0.8v0.2h-0.6v0.4h0.5V23h-0.5v0.5h0.6V23.7z M82,23
	c0.1,0,0.2,0.2,0.2,0.3c0,0.2,0.1,0.4,0.1,0.4h-0.2c0,0-0.1-0.2-0.1-0.4c0-0.2-0.1-0.3-0.3-0.3h-0.1v0.7h-0.2v-1.5
	c0.1,0,0.2,0,0.4,0c0.2,0,0.3,0,0.4,0.1c0.1,0.1,0.1,0.2,0.1,0.3C82.3,22.8,82.1,22.9,82,23L82,23z M81.7,22.9
	c0.2,0,0.3-0.1,0.3-0.3c0-0.2-0.1-0.3-0.3-0.3c-0.1,0-0.1,0-0.2,0v0.5H81.7z M83.7,23.7h-0.8v-1.5h0.8v0.2H83v0.4h0.5V23H83v0.5h0.6
	V23.7z M85.3,23.7H85L84.6,23c-0.1-0.2-0.2-0.3-0.3-0.5l0,0c0,0.2,0,0.4,0,0.7v0.6h-0.2v-1.5h0.3l0.4,0.7c0.1,0.2,0.2,0.3,0.2,0.5
	l0,0c0-0.2,0-0.4,0-0.7v-0.6h0.2V23.7z M86.9,23.7c-0.1,0-0.2,0.1-0.4,0.1c-0.4,0-0.7-0.3-0.7-0.8c0-0.5,0.3-0.8,0.8-0.8
	c0.2,0,0.3,0,0.3,0.1l0,0.2c-0.1,0-0.2-0.1-0.3-0.1c-0.3,0-0.5,0.2-0.5,0.6c0,0.4,0.2,0.6,0.5,0.6c0.1,0,0.2,0,0.3-0.1L86.9,23.7z
	 M88.2,23.7h-0.8v-1.5h0.8v0.2h-0.6v0.4h0.5V23h-0.5v0.5h0.6V23.7z"/>
</svg>
