<?xml version="1.0" encoding="utf-8"?>
<!-- Generator: Adobe Illustrator 18.0.0, SVG Export Plug-In . SVG Version: 6.00 Build 0)  -->
<!DOCTYPE svg PUBLIC "-//W3C//DTD SVG 1.1//EN" "http://www.w3.org/Graphics/SVG/1.1/DTD/svg11.dtd">
<svg version="1.1" id="Layer_1" xmlns="http://www.w3.org/2000/svg" xmlns:xlink="http://www.w3.org/1999/xlink" x="0px" y="0px"
	 viewBox="1.9 20.6 46.1 8.7" enable-background="new 1.9 20.6 46.1 8.7" xml:space="preserve">
<path d="M44.9,27c-0.3,0-0.6-0.1-0.8-0.3c-0.2-0.2-0.4-0.5-0.4-0.8l0-0.1l0.6-0.1l0,0.1c0,0.2,0.1,0.4,0.2,0.5
	c0.1,0.1,0.2,0.1,0.4,0.1c0.2,0,0.3-0.1,0.5-0.2c0.1-0.1,0.2-0.3,0.2-0.5c0-0.2-0.1-0.3-0.2-0.4c-0.1-0.1-0.3-0.2-0.4-0.2
	c-0.1,0-0.2,0-0.3,0l-0.1,0l0.1-0.6l0.1,0c0,0,0,0,0.1,0c0.2,0,0.3,0,0.4-0.1c0.1-0.1,0.2-0.2,0.2-0.4c0-0.1,0-0.2-0.1-0.3
	s-0.2-0.1-0.4-0.1c-0.1,0-0.3,0-0.4,0.1c-0.1,0.1-0.2,0.2-0.2,0.4l0,0.1l-0.6-0.1l0-0.1c0.1-0.3,0.2-0.6,0.4-0.7
	c0.2-0.2,0.5-0.3,0.8-0.3c0.2,0,0.4,0,0.6,0.1c0.2,0.1,0.3,0.2,0.4,0.4c0.1,0.2,0.1,0.3,0.1,0.5c0,0.2,0,0.3-0.1,0.5
	c-0.1,0.1-0.1,0.2-0.2,0.2c0.1,0.1,0.2,0.2,0.3,0.3c0.1,0.2,0.2,0.4,0.2,0.6c0,0.3-0.1,0.6-0.4,0.9C45.6,26.9,45.3,27,44.9,27z
	 M42.6,26.9H42v-2.7c-0.1,0.1-0.2,0.1-0.3,0.2c-0.2,0.1-0.3,0.2-0.5,0.2l-0.1,0v-0.6l0.1,0c0.2-0.1,0.4-0.2,0.6-0.4
	c0.2-0.2,0.3-0.3,0.4-0.4l0-0.1h0.4V26.9z M47.8,29.4h-8.1c-0.2,0-0.3-0.1-0.3-0.3v-8.1c0-0.2,0.1-0.3,0.3-0.3h8.1
	c0.2,0,0.3,0.1,0.3,0.3v8.1C48.1,29.2,47.9,29.4,47.8,29.4z M39.9,28.8h7.6v-7.6h-7.6V28.8z M36.7,28.1h-0.3c-0.1,0-0.1,0-0.2-0.1
	l-2.5-3.8c-0.2-0.3-0.4-0.6-0.6-0.9c0,0.3,0,0.8,0,1.5v3.1c0,0.1-0.1,0.2-0.2,0.2h-0.3c-0.1,0-0.2-0.1-0.2-0.2v-5.8
	c0-0.1,0.1-0.2,0.2-0.2H33c0.1,0,0.1,0,0.2,0.1l2.5,3.7c0.3,0.4,0.5,0.7,0.6,1c0-0.5,0-1,0-1.6v-3.1c0-0.1,0.1-0.2,0.2-0.2h0.3
	c0.1,0,0.2,0.1,0.2,0.2v5.8C36.9,28,36.8,28.1,36.7,28.1z M28.6,28.2c-1.6,0-2.7-1.3-2.7-3.1c0-1.9,1.1-3.2,2.8-3.2
	c1.6,0,2.7,1.3,2.7,3.1C31.3,27.2,29.9,28.2,28.6,28.2z M28.6,22.4c-1.4,0-2.1,1.3-2.1,2.6c0,1.1,0.6,2.5,2,2.5
	c1.4,0,2.1-1.4,2.1-2.6C30.6,23.7,30,22.4,28.6,22.4z M25,27.9c0,0,0.1-0.1,0.1-0.1c0,0,0-0.1,0-0.1L25,27.4c0-0.1-0.2-0.1-0.3-0.1
	c-0.3,0.2-0.8,0.3-1.2,0.3c-1.5,0-2.4-0.9-2.4-2.5c0-1.6,0.9-2.6,2.5-2.6c0.4,0,0.8,0.1,1.1,0.2c0,0,0.1,0,0.1,0
	c0,0,0.1-0.1,0.1-0.1l0.1-0.2c0-0.1,0-0.2-0.1-0.3c-0.4-0.2-0.8-0.3-1.4-0.3c-1.9,0-3.1,1.3-3.1,3.2c0,2.3,1.6,3.2,2.9,3.2
	C24,28.2,24.6,28.1,25,27.9z M19,27.9c0.1,0,0.1-0.1,0.1-0.2v-2.6c0-0.1-0.1-0.2-0.2-0.2h-1.7c-0.1,0-0.2,0.1-0.2,0.2v0.2
	c0,0.1,0.1,0.2,0.2,0.2h1.2v1.8c-0.3,0.1-0.6,0.2-1.1,0.2c-1.7,0-2.3-1.3-2.3-2.5c0-1.5,1-2.5,2.4-2.5c0.5,0,0.9,0.1,1.1,0.2
	c0.1,0.1,0.3,0,0.3-0.1l0.1-0.2c0-0.1,0-0.1,0-0.2c0-0.1-0.1-0.1-0.1-0.1c-0.3-0.1-0.8-0.3-1.4-0.3c-2.2,0-3.2,1.6-3.2,3.2
	c0,1.9,1.2,3.2,3,3.2C18,28.2,18.6,28,19,27.9z M13.4,26.4c0-1-0.6-1.5-1.6-1.9c-0.9-0.4-1.1-0.7-1.1-1.2c0-0.1,0-0.9,1.1-0.9
	c0.5,0,0.8,0.2,0.8,0.2c0.1,0,0.1,0.1,0.2,0c0.1,0,0.1,0,0.2-0.1l0.1-0.2c0.1-0.1,0-0.2-0.1-0.3c-0.2-0.2-0.7-0.3-1.2-0.3
	c-1.1,0-1.9,0.7-1.9,1.7c0,0.8,0.5,1.4,1.6,1.8c0.9,0.3,1,0.7,1,1.2c0,0.6-0.5,1.1-1.2,1.1c-0.5,0-0.9-0.2-1.1-0.3
	c-0.1,0-0.1,0-0.2,0c-0.1,0-0.1,0-0.2,0.1l-0.1,0.2c-0.1,0.1,0,0.2,0.1,0.3c0.4,0.3,1,0.4,1.5,0.4C12.7,28.2,13.4,27.3,13.4,26.4z
	 M8.6,27.9v-5.8c0-0.1-0.1-0.2-0.2-0.2H8.1c-0.1,0-0.2,0.1-0.2,0.2v5.8c0,0.1,0.1,0.2,0.2,0.2h0.3C8.5,28.1,8.6,28,8.6,27.9z
	 M6.3,25.6v-3.5c0-0.1-0.1-0.2-0.2-0.2H5.8c-0.1,0-0.2,0.1-0.2,0.2v3.5c0,1.2-0.5,1.9-1.5,1.9c-0.9,0-1.4-0.7-1.4-1.9v-3.5
	c0-0.1-0.1-0.2-0.2-0.2H2.2c-0.1,0-0.2,0.1-0.2,0.2v3.6c0,1.6,0.8,2.6,2.1,2.6C5.4,28.2,6.3,27.2,6.3,25.6z"/>
</svg>
