<svg xmlns="http://www.w3.org/2000/svg" viewBox="0 0 198 26"><path fill="#A4B5C6" d="M15.1 15.7c0 1.9-.4 3.4-1.1 4.3-.8.9-2 1.4-3.7 1.4-1.7 0-3-.5-3.8-1.4-.8-.9-1.1-2.3-1.1-4.3V.4H.3v16.2c0 2.9.9 5.1 2.6 6.8 1.7 1.7 4.2 2.5 7.3 2.5 2.1 0 3.9-.4 5.4-1.1 1.5-.7 2.7-1.8 3.5-3.2.8-1.4 1.2-3 1.2-4.9V.4h-5.2v15.3zm11.1 9.7h5.2V.4h-5.2v25zM46 11c-1.7-.8-2.8-1.4-3.3-1.8-.5-.3-.8-.7-1-1-.2-.3-.3-.8-.3-1.2 0-.8.3-1.4.8-1.8.5-.5 1.3-.7 2.3-.7.8 0 1.7.1 2.5.3.9.2 1.9.6 3.2 1.1l1.7-4.1c-1.3-.6-2.5-1-3.6-1.3-1.2-.4-2.5-.5-3.7-.5-2.6 0-4.6.6-6.1 1.9-1.5 1.3-2.2 3-2.2 5.2 0 1.2.2 2.2.7 3.1.4.9 1 1.7 1.8 2.3.7.7 1.9 1.4 3.4 2.1 1.6.8 2.6 1.3 3.2 1.7.5.4.9.7 1.2 1.1.3.4.4.8.4 1.3 0 .9-.3 1.5-.9 2-.6.4-1.5.7-2.6.7-.9 0-2-.2-3.1-.5s-2.5-.8-4.2-1.6v4.9c2 1 4.3 1.5 6.9 1.5 2.8 0 5-.7 6.6-2 1.6-1.3 2.4-3.1 2.4-5.4 0-1.6-.4-3-1.3-4.1-1-1-2.5-2.1-4.8-3.2zm19.6 4.8h4.6V21c-1.1.2-2.2.3-3.3.3-2.1 0-3.6-.7-4.7-2.2-1.1-1.4-1.6-3.5-1.6-6.2 0-2.6.7-4.7 2-6.2s3.1-2.3 5.4-2.3c1.9 0 3.8.5 5.6 1.4l1.7-4.3C72.9.5 70.5 0 68 0c-4 0-7.1 1.1-9.4 3.4-2.3 2.3-3.4 5.4-3.4 9.5 0 4.2 1 7.4 2.9 9.6 1.9 2.2 4.7 3.3 8.4 3.3 1.4 0 2.9-.1 4.2-.3 1.4-.2 2.9-.6 4.4-1.1v-13h-9.7v4.4zM91.8 2.6c1.8 0 3.7.4 5.5 1.3l1.2-2.5C96.6.4 94.4 0 91.8 0c-2.4 0-4.5.5-6.3 1.6-1.8 1.1-3.1 2.6-4.1 4.5-.9 1.9-1.4 4.2-1.4 6.8 0 4.1 1 7.3 2.9 9.6 2 2.2 4.7 3.4 8.3 3.4 2.5 0 4.6-.3 6.3-1v-2.6c-2.2.6-4.1.9-5.8.9-2.8 0-4.9-.9-6.4-2.7-1.5-1.8-2.2-4.3-2.2-7.6 0-3.2.8-5.7 2.3-7.5 1.6-1.9 3.7-2.8 6.4-2.8zM112.9 0c-3.6 0-6.4 1.1-8.3 3.4-2 2.2-2.9 5.4-2.9 9.5s1 7.3 2.9 9.6c2 2.3 4.7 3.4 8.3 3.4 3.5 0 6.3-1.1 8.2-3.4 2-2.3 3-5.5 3-9.5s-1-7.2-3-9.5c-2-2.4-4.7-3.5-8.2-3.5zm6.1 20.6c-1.4 1.8-3.4 2.6-6.1 2.6-2.7 0-4.7-.9-6.1-2.6-1.4-1.8-2.1-4.3-2.1-7.7 0-3.4.7-5.9 2.1-7.7 1.4-1.8 3.5-2.6 6.2-2.6s4.7.9 6.1 2.6c1.4 1.7 2.1 4.3 2.1 7.7-.2 3.4-.9 6-2.2 7.7zm26.9-5.8c0 .7 0 1.9.1 3.6.1 1.7.1 2.7.2 3h-.2L132.7.4h-3.2v25.1h2.6V11.2c0-2.1-.1-4.3-.3-6.8h.1l13.3 21.1h3.2V.4h-2.7v14.4zm18-9.3l1.5 2c2.4-2 3.7-3.1 4-3.3.3-.3.6-.5.8-.8-.1 1.3-.1 2.7-.1 4.2v17.9h2.7V.4h-2.3l-6.6 5.1zm21.5 17.3v-.1l5.3-5.4c2.4-2.4 4-4.3 4.9-5.9.9-1.6 1.3-3.1 1.3-4.7 0-2-.7-3.7-2-4.9-1.3-1.2-3.1-1.8-5.4-1.8-2.6 0-5.1 1-7.3 2.9l1.5 1.9c1.1-.9 2.1-1.5 3-1.9.9-.3 1.9-.5 2.9-.5 1.4 0 2.5.4 3.3 1.2.8.8 1.2 1.8 1.2 3.2 0 .9-.2 1.8-.5 2.7-.3.8-.8 1.7-1.4 2.5-.6.9-1.9 2.3-3.9 4.4l-6.4 6.6v2.5h16v-2.6h-12.5z"/></svg>