<svg xmlns="http://www.w3.org/2000/svg" viewBox="0 0 186 35" enable-background="new 0 0 186 35"><path fill="#a4b5c6" d="M184.8 0h-32.8c-.6 0-1.2.5-1.2 1.2v32.7c0 .6.5 1.2 1.2 1.2h32.8c.6 0 1.2-.5 1.2-1.2v-32.7c0-.7-.5-1.2-1.2-1.2zm-1.1 32.7h-30.5v-30.4h30.5v30.4zm-23.4-17.5c.4-.2.8-.5 1.1-.7v10.7h2.5v-15.1h-1.8l-.1.2c-.3.6-.8 1.2-1.5 1.8-.7.6-1.5 1.2-2.5 1.6l-.2.1v2.5l.5-.2c.6-.1 1.3-.4 2-.9zm18.2 7.6h-6.7l.3-.3c.2-.2.7-.7 2-1.8s2.2-1.9 2.8-2.5c.6-.6 1-1.3 1.2-1.9.3-.6.4-1.2.4-1.8 0-1.2-.4-2.3-1.3-3.1-.9-.8-2.1-1.2-3.5-1.2-1.5 0-2.6.4-3.5 1.1-.9.8-1.4 1.9-1.5 3.3v.4l2.6.3v-.4c0-.8.2-1.4.7-1.8.4-.4 1-.6 1.8-.6.7 0 1.3.2 1.7.6.4.4.6.9.6 1.5s-.2 1.2-.7 1.9c-.5.7-1.6 1.7-3.1 2.9-1 .8-1.8 1.6-2.4 2.2-.6.7-1 1.3-1.2 2-.2.4-.2.9-.2 1.4v.4h10.3v-2.6zm-38.2-17.7h-1.1c-.4 0-.8.3-.8.8v12.3c0 2.4 0 4.3.1 6.2-.7-1.2-1.6-2.5-2.6-4.1l-9.9-14.9c-.1-.2-.4-.3-.7-.3h-1c-.4 0-.8.3-.8.8v23.3c0 .4.3.8.8.8h1.1c.4 0 .8-.3.8-.8v-18.6c.7 1.1 1.4 2.3 2.3 3.5l10.2 15.4c.1.2.4.4.7.4h1.1c.4 0 .8-.3.8-.8v-23.3c-.3-.4-.6-.7-1-.7zm-32.7-.4c-6.7 0-11.1 5.2-11.1 13 0 7.4 4.5 12.6 10.9 12.6 5.3 0 11.1-4.1 11.1-13 0-7.6-4.4-12.6-10.9-12.6zm-.2 23.1c-5.7 0-8.2-5.9-8.2-10.1 0-5.3 2.6-10.5 8.4-10.5 5.6 0 8.1 5.3 8.1 10.2.1 5-2.6 10.4-8.3 10.4zm-14.6-.7c-.2-.4-.7-.5-1-.3-1.3.7-3.2 1.1-5 1.1-6 0-9.5-3.8-9.5-10.1 0-6.5 3.8-10.6 9.9-10.6 1.7 0 3.2.3 4.5 1 .2.1.4.1.6 0 .2-.1.4-.2.5-.4l.4-.9c.2-.4 0-.8-.4-1-1.4-.7-3.4-1.1-5.7-1.1-7.5 0-12.5 5.2-12.5 12.9 0 9.3 6.3 12.7 11.7 12.7 2.6 0 5.2-.5 6.7-1.3.2-.1.3-.3.4-.5.1-.2 0-.4 0-.6l-.6-.9zm-24.4-10.2h-6.8c-.5 0-1 .4-1 1v1c0 .5.4 1 1 1h4.7v7.1c-1 .4-2.5.6-4.3.6-7 0-9.4-5.4-9.4-10 0-6.1 3.9-10.1 9.8-10.1 2.1 0 3.5.5 4.5.9.5.2 1 0 1.3-.5l.4-.9c.1-.2.1-.5 0-.8-.1-.2-.3-.5-.5-.6-1.1-.5-3.3-1.1-5.7-1.1-9 0-13 6.5-13 12.9 0 7.8 4.8 12.8 12.3 12.8 3.1 0 5.6-.7 7-1.3.4-.2.6-.5.6-.9v-10.1c.1-.6-.4-1-.9-1zm-28.8-1.3c-3.6-1.4-4.3-2.7-4.3-4.7 0-.4.1-3.6 4.4-3.6 2.1 0 3.2.8 3.3.9.2.2.5.2.8.2.3 0 .5-.2.7-.4l.5-.9c.3-.4.2-1-.2-1.3-.9-.6-2.7-1.3-5-1.3-4.3 0-7.5 2.8-7.5 6.7 0 3.3 2.2 5.7 6.6 7.3 3.5 1.3 4.1 2.8 4.1 4.8 0 2.6-1.9 4.3-4.9 4.3-2 0-3.5-.7-4.4-1.4-.2-.1-.5-.2-.7-.1-.3.1-.5.2-.6.4l-.6.9c-.3.4-.2 1 .2 1.3 1.4 1.1 3.9 1.8 6 1.8 5.6 0 8.1-3.8 8.1-7.2 0-4.2-2.6-6.1-6.5-7.7zm-13.8-10.7h-1.1c-.5 0-1 .4-1 1v23.3c0 .5.4 1 1 1h1.1c.5 0 1-.4 1-1v-23.4c0-.5-.4-.9-1-.9zm-9.2 0h-1.1c-.5 0-1 .4-1 1v14.1c0 5-2.1 7.7-5.9 7.7-3.6-.1-5.6-2.8-5.6-7.8v-14.1c0-.5-.4-1-1-1h-1c-.5 0-1 .4-1 1v14.3c0 6.4 3.2 10.3 8.5 10.3 5.7 0 9-4 9-10.6v-14c0-.5-.4-.9-.9-.9z"/></svg>