<svg xmlns="http://www.w3.org/2000/svg" viewBox="0 0 250 120"><path fill="#F70" d="M248.2 41.8c.2-3.1.9-7.6-1.8-8.7-.2 0-2.7-.9-3.8.7-.2.4-9.2 28.3-9.4 28.8-.7.7-1.6-25-1.8-26.1-.2-1.3-1.3-3.3-2.7-3.3-2-.2-3.6 1.3-6.3 8.3-3.6 9.4-7.6 22.3-8.5 22.3-2.7.4-7.6-10-8.7-13.4 6.3-9.8 13.6-13.6 13.6-13.6 0-1.6-2.2-4-4.2-3.6-3.6.7-8.9 7.4-15 18.1.7-6.9 1.3-19.2 1.1-26.6-.2-2.5.2-6.3-2.9-6-2.7.2-3.8 4.7-3.3 8-4 6.9-14.5 26.1-15.2 26.6-1.1-.7-4.2-3.8-4.5-6.3-.2-1.8.9-5.4 3.1-7.4 3.3-2.9 6.9-3.3 6.9-3.3.9-.9-2.2-4.5-5.1-4.5-5.4.2-10.9 8.7-11.4 12.7-1.3 1.6-9.2 17.4-9.8 18.5-2.9-1.8 2.9-24.3-1.8-25.9-3.3-1.1-9.4 9.2-11.2 11.6.2-1.6 2.7-12.7 2.5-14.5-.2-1.3-3.3-2-5.1-1.6-1.1.2-1.6 7.8-4 13.2-.9 2-11.6 21.9-19 19.9-2-.7-4.9-1.8-4-8.3 0 0 5.6-1.3 11.4-5.4 4.5-3.1 8.5-10.7 5.6-15.2-.9-1.3-4.5-4.9-10-3.6-10 2.5-12.5 17.4-12.7 19.6-1.1.4-4.7.4-4.7.4-.2.9-.4 4 .7 4.9 1.1.9 3.6.4 3.6.4 0 5.1 1.8 14.5 11.4 13.4 8.3-1.1 16.3-14.1 18.5-18.5 0 .7-1.6 13.8-1.1 15.4.4 2 2.7 2.2 4.9 1.6.9-.4.4-14.5 10.3-25 0 0-2.7 12.9-.7 21.9.4 1.8 2 5.1 3.8 5.4 4.7.4 11.4-19.9 12.1-21.4.9 4.7 5.4 7.6 7.1 9.2-1.6 2.7-6.7 11.4-1.1 14.5 3.3 1.8 6.7.7 8.5-1.1 7.6-8.5.9-14.5-.9-17.2 0 0 11.4-19.2 12.1-19.9-.5 12.2.2 22.2-.7 33.8.4 1.3 1.1 2.2 4.5 1.6 0 0 2.7-12.1 4-13.4.2.7 5.8 16.5 12.5 14.1 2.5-.9 3.8-8 6-14.1 2-5.6 5.1-13.2 5.4-13.4.7 2.2-.9 25.4 4.2 27 2.7.9 5.1-2.2 6-4.2 2.9-6.9 5.1-19 6-19.2.2 2.2 1.8 27.2-.2 43.5-2.2 17.4-12.3 23-12.3 23-1.1.9 3.8 4.5 4.9 3.8 12.1-8.3 14.5-26.1 15-34.6 0-10.3-2-40-1.8-42.9zm-121-2.9c2 2 .2 5.6-2.9 8.5-3.3 2.9-8 4.2-8 4 1.8-12.5 8.9-14.5 10.9-12.5zm54.1 28.2c-.7 2.9-3.3 4.5-4.5 2.9-.7-1.1 1.8-5.8 2.5-7.4 1.1.7 2.4 2.7 2 4.5zm-67.2-30c-.7-2.5-.9-3.8-2.7-4-9.6.7-18.1 1.6-27.9 0-.2 1.1.2 4 1.8 5.1 5.6 1.3 12.3 1.1 17.4.9C98.9 44 94.9 50 92.4 56.7c-3.3 9.2-5.4 23.7-.4 31.9.9 1.6 3.3 2.5 6.3.2l.7-.7c.2-.2 0-.4 0-.7-1.3-4.7-6.5-15.2 2.5-34.2 3-7.6 12.6-16.1 12.6-16.1zm-29.3 4.7c0 9.8-11.6 28.3-20.3 23.9-3.1-1.6-3.6-8-2.9-9.6 18.1-6.9 21-12.1 19.6-18.3-.9-4.5-6.9-5.6-10.7-4.2-8.7 2.7-12.3 10.9-15.2 19.6-2.2.9-4 1.6-6.3 2.7C35.6 39.8 9 41.6 9 28.4c-.2-7.4 4.2-10.3 6.7-11.6 4.2-2.9 20.3-8.9 37.5-8.3 13.8.5 20 5.6 21.6 8.5 0 0 .4-.2.7-.7.7-4.9 0-6.5-3.6-10-10.7-8.9-31-7.6-50-1.1C0 13 0 24.6 0 26.6c.2 6.9 2.2 12.9 17.2 18.8 14.3 5.8 24.1 8.5 26.8 13.2-11.8 6.3-25 16.1-21.9 26.3 1.8 6 17 4.9 28.8-7.6 6.7-7.1 1.1-17.6 1.1-18.1.9-.7 2.5-1.1 3.3-1.3-.2 2.2.9 14.3 10.9 14.3 12.3 0 23.4-17 23.4-27.2-.1-1.8-3-3.2-4.8-3.2zm-12-3.8c2.9-.9 4 1.3 3.8 2.9-.4 3.3-4 5.6-13.6 9.4 1.5-5.3 5.1-10.9 9.8-12.3zM48.2 68.2c-1.1 6.5-7.1 10-13.4 12.9-1.8.9-6.7 2.2-7.1 0-1.1-5.4 15.2-16.7 19.2-19.4h.2c.9 1.3 1.3 4.9 1.1 6.5z"/></svg>