<svg xmlns="http://www.w3.org/2000/svg" viewBox="0 0 300 89" enable-background="new 0 0 300 89"><style type="text/css">.st0{fill:#0071BB;} .st1{fill:#FFF100;} .st2{fill:#6D6E70;}</style><ellipse class="st0" cx="45.2" cy="13.1" rx="12.6" ry="12.2"/><ellipse class="st1" cx="45.2" cy="44.1" rx="12.6" ry="12.2"/><ellipse class="st0" cx="45.2" cy="75.2" rx="12.6" ry="12.2"/><ellipse class="st0" cx="12.6" cy="44.1" rx="12.6" ry="12.2"/><ellipse class="st0" cx="77.7" cy="44.1" rx="12.6" ry="12.2"/><ellipse class="st1" cx="77.7" cy="13.1" rx="12.6" ry="12.2"/><ellipse class="st1" cx="12.6" cy="75.6" rx="12.6" ry="12.2"/><ellipse class="st0" cx="77.7" cy="75.6" rx="12.6" ry="12.2"/><ellipse class="st0" cx="12.6" cy="13.1" rx="12.6" ry="12.2"/><path class="st2" d="M159.2 74.6c0 9-7.8 13.5-23.4 13.5h-12.3c-12.2 0-19.6-2.2-22.1-6.7-.9-1.6-1.4-3.9-1.4-6.8v-31.4c0-2 1-3.1 3.1-3.1h2.6c2.1 0 3.1 1 3.1 3.1v30.9c0 3 1.9 5 5.6 6.1 2 .5 5.1.8 9.2.8h12.1c4.3 0 7.4-.2 9.3-.7 3.7-1 5.6-3 5.6-6.1v-31c0-2 1-3.1 3.1-3.1h2.5c2 0 3.1 1 3.1 3.1v31.4zM174.4 85c0 2.1-1 3.1-3.1 3.1h-2.6c-2 0-3.1-1-3.1-3.1v-41.8c0-2 1-3.1 3.1-3.1h2.6c2.1 0 3.1 1 3.1 3.1v41.8zM234.9 76.3c0 5.3-2.4 8.8-7.3 10.3-3.2 1-7.8 1.5-13.7 1.5h-30.3c-2 0-3.1-1-3.1-3.1v-1c0-2.1 1-3.1 3.1-3.1h30.3c8.2 0 12.2-1.5 12.2-4.5v-4.2c0-3.2-4-4.8-12.1-4.8h-11.6c-14.7 0-22-3.8-22-11.5v-3.6c0-5.1 2.4-8.6 7.3-10.4 3.1-1.2 7.7-1.8 13.9-1.8h4.5c2.1 0 3.1 1 3.1 3.1v1c0 2.1-1 3.1-3.1 3.1h-4.6c-8.2 0-12.3 1.7-12.3 5v3.3c0 2.1 1.8 3.5 5.4 4.1 1.4.2 4 .4 7.7.4h11.7c5.2 0 9.6.7 13.3 2.2 5.1 2 7.6 5.3 7.6 9.7v4.3zM300 75.9c0 4.4-2.2 7.6-6.5 9.8-3.3 1.6-7.4 2.4-12.3 2.4h-19.9c-5.2 0-9.6-.7-13.1-2.2-4.9-2-7.3-5.3-7.3-9.8v-24.1c0-4.3 2.5-7.5 7.5-9.6 3.7-1.5 8-2.3 13-2.3h7.9c2 0 3.1 1 3.1 3.1v1c0 2.1-1 3.1-3.1 3.1h-7.5c-8.1 0-12.2 1.6-12.2 4.8v24c0 3.3 3.9 4.9 11.8 4.9h19.8c1.8 0 3.8-.3 5.9-1 2.7-.9 4.1-2.1 4.1-3.6v-12.6c0-2 1-3.1 3.1-3.1h2.6c2 0 3.1 1 3.1 3.1v12.1z"/></svg>